<?xml version="1.0" encoding="UTF-8"?>
<svg xmlns="http://www.w3.org/2000/svg" width="73" height="72" viewBox="0 0 73 72" fill="none">
  
  <path d="M41.2818 27.9078C42.7343 26.3973 45.6248 24.2885 45.6248 24.2885L44.9009 19.9453C44.9009 19.9453 36.9387 24.2885 35.4911 26.4601C35.4911 26.4649 35.4862 26.4697 35.4814 26.4745C35.3656 26.4745 32.0794 34.4611 31.9925 34.5432C26.2018 40.3389 22.3413 38.4086 22.3413 42.2692C22.3413 43.5046 22.1001 41.5453 22.8239 43.7169C25.0051 50.2558 38.9606 58.7394 44.9009 56.8622C49.934 55.2745 51.3141 51.2113 50.8509 46.6123C50.4986 43.0992 50.0933 41.6901 48.3995 38.4086C47.4585 36.5893 39.6652 35.2622 39.2309 33.1003C38.7483 30.6874 41.1611 28.2745 41.2818 27.9078Z" fill="#24AE7C"></path>
  <path d="M48.5197 38.7657C47.7766 36.5362 41.2813 35.1464 39.8337 33.6987C38.386 32.2509 39.9302 29.7464 40.5575 28.6316C41.3779 27.1791 45.6244 24.2885 45.6244 24.2885L44.9005 19.9453C44.9005 19.9453 36.9383 24.2885 35.4906 26.4601C33.4832 29.4713 33.2902 33.2692 31.8715 35.1464C30.0136 37.6027 21.0139 39.4895 22.4616 43.1089" stroke="#1A7F5A" stroke-width="1.73077" stroke-linecap="round" stroke-linejoin="round"></path>
  <path d="M41.2799 27.9078C42.7324 26.3973 45.623 24.2885 45.623 24.2885L44.8991 19.9453C44.8991 19.9453 36.9369 24.2885 35.4892 26.4601C35.4892 26.4649 35.4844 26.4697 35.4796 26.4745C35.3638 26.4745 35.248 26.4601 35.1273 26.4601C27.7297 26.4601 21.7363 31.971 21.7363 38.7657C21.7363 40.0011 21.7363 40.9373 22.4602 43.1089C24.6413 49.6477 38.9637 58.7394 44.8991 56.8622C58.652 52.519 45.1211 29.7126 41.2799 27.9078Z" stroke="#1A7F5A" stroke-width="1.73077" stroke-linecap="round" stroke-linejoin="round"></path>
  <path d="M42.9989 20.6713C41.474 18.0171 39.1626 16.3281 36.5761 16.3281C31.9773 16.3281 28.252 21.675 28.252 28.2718" stroke="#1A7F5A" stroke-width="1.73077" stroke-linecap="round" stroke-linejoin="round"></path>
  <path d="M39.714 22.9665C39.0722 22.2668 38.4448 22.1172 37.6438 22.1172C35.9645 22.1172 34.5072 23.8834 33.793 26.4604" stroke="#1A7F5A" stroke-width="1.73077" stroke-linecap="round" stroke-linejoin="round"></path>
  <path d="M44.1768 30.8035C44.9006 30.0797 44.9006 29.0373 44.9006 27.9081C44.9006 26.7789 44.7896 26.0453 44.5869 25.0078" stroke="#1A7F5A" stroke-width="1.73077" stroke-linecap="round" stroke-linejoin="round"></path>
  <path d="M28.976 17.7743C29.7755 17.7743 30.4237 17.1262 30.4237 16.3266C30.4237 15.5271 29.7755 14.8789 28.976 14.8789C28.1765 14.8789 27.5283 15.5271 27.5283 16.3266C27.5283 17.1262 28.1765 17.7743 28.976 17.7743Z" stroke="#1A7F5A" stroke-width="1.73077" stroke-linecap="round" stroke-linejoin="round"></path>
  <path d="M25.3564 18.4961C25.3564 18.4961 26.0803 19.9438 26.6207 21.3915C27.1323 22.7572 28.2518 27.9063 28.2518 27.9063" stroke="#1A7F5A" stroke-width="1.73077" stroke-linecap="round" stroke-linejoin="round"></path>
  <path d="M28.252 17.7734L29.6996 21.3927" stroke="#1A7F5A" stroke-width="1.73077" stroke-linecap="round" stroke-linejoin="round"></path>
  <path d="M30.4238 15.6016L33.3192 17.0493" stroke="#1A7F5A" stroke-width="1.73077" stroke-linecap="round" stroke-linejoin="round"></path>
  <path d="M23.9092 21.3927C24.9086 21.3927 25.7188 20.5825 25.7188 19.5831C25.7188 18.5836 24.9086 17.7734 23.9092 17.7734C22.9098 17.7734 22.0996 18.5836 22.0996 19.5831C22.0996 20.5825 22.9098 21.3927 23.9092 21.3927Z" stroke="#1A7F5A" stroke-width="1.73077" stroke-linecap="round" stroke-linejoin="round"></path>
  <path d="M22.8234 33.5815C22.8234 33.5815 23.0405 26.8351 23.0019 25.011C22.973 23.6357 22.0947 19.582 22.0947 19.582" stroke="#1A7F5A" stroke-width="1.73077" stroke-linecap="round" stroke-linejoin="round"></path>
</svg>





