<?xml version="1.0" encoding="UTF-8"?>
<svg xmlns="http://www.w3.org/2000/svg" width="73" height="72" viewBox="0 0 73 72" fill="none">
  
  <path d="M26.1086 57.1203C26.1086 57.1203 21.8125 56.4043 21.8125 48.528C21.8125 43.5159 26.0752 39.8546 26.8247 36.3557C28.9727 26.3314 25.3926 14.875 25.3926 14.875" stroke="#1A7F5A" stroke-width="1.73077" stroke-linecap="round" stroke-linejoin="round"></path>
  <path d="M34.7012 52.1114C34.7012 52.1114 49.0216 52.1114 49.0216 39.939C49.0216 31.3467 43.0548 25.9766 43.0548 25.9766" stroke="#1A7F5A" stroke-width="1.73077" stroke-linecap="round" stroke-linejoin="round"></path>
  <path d="M36.8486 57.1215L37.5647 52.1094" stroke="#1A7F5A" stroke-width="1.73077" stroke-linecap="round" stroke-linejoin="round"></path>
  <path d="M37.5654 14.875L45.4417 20.6032C45.4417 20.6032 45.4417 23.4673 44.0096 24.8993C41.8616 27.0474 38.2815 25.6153 38.2815 25.6153" stroke="#1A7F5A" stroke-width="1.73077" stroke-linecap="round" stroke-linejoin="round"></path>
  <path d="M40.2174 38.4537C41.9862 38.3446 43.5743 37.1393 44.0586 35.3318C44.6652 33.0679 43.3231 30.7365 41.0546 30.1286C38.786 29.5208 36.4592 30.8642 35.8513 33.1327C35.7883 33.3678 35.7601 33.6024 35.7364 33.8382C33.9676 33.9474 32.3796 35.1527 31.8952 36.9602C31.2886 39.2241 30.8353 47.2419 34.2935 48.1685C36.3683 48.7244 38.4929 46.3286 39.4195 42.8705" fill="#24AE7C"></path>
  <path d="M40.2174 38.4537C41.9862 38.3446 43.5743 37.1393 44.0586 35.3318C44.6652 33.0679 43.3231 30.7365 41.0546 30.1286C38.786 29.5208 36.4592 30.8642 35.8513 33.1327C35.7883 33.3678 35.7601 33.6024 35.7364 33.8382C33.9676 33.9474 32.3796 35.1527 31.8952 36.9602C31.2886 39.2241 30.8353 47.2419 34.2935 48.1685C36.3683 48.7244 38.4929 46.3286 39.4195 42.8705" stroke="#1A7F5A" stroke-width="1.73077" stroke-linecap="round" stroke-linejoin="round"></path>
  <path d="M38.6859 45.6338C38.6859 45.6338 43.1566 48.3143 43.7126 46.2394C43.8979 45.5478 44.0832 44.8561 43.3916 44.6708C42.8429 44.5238 41.1314 44.8065 41.1314 44.8065C41.1314 44.8065 41.8727 42.04 41.3664 41.163C40.3538 39.4092 38.2293 41.805 38.2293 41.805" fill="#24AE7C"></path>
  <path d="M38.6859 45.6338C38.6859 45.6338 43.1566 48.3143 43.7126 46.2394C43.8979 45.5478 44.0832 44.8561 43.3916 44.6708C42.8429 44.5238 41.1314 44.8065 41.1314 44.8065C41.1314 44.8065 41.8727 42.04 41.3664 41.163C40.3538 39.4092 38.2293 41.805 38.2293 41.805" stroke="#1A7F5A" stroke-width="1.73077" stroke-linecap="round" stroke-linejoin="round"></path>
  <path d="M36.0663 36.0364C36.0663 36.0364 35.0041 37.2343 34.8188 37.9259C34.6334 38.6175 34.0922 39.9551 34.9544 40.1861C37.0293 40.7421 37.5853 38.6672 37.5853 38.6672" stroke="#1A7F5A" stroke-width="1.73077" stroke-linecap="round" stroke-linejoin="round"></path>
</svg>





