<?xml version="1.0" encoding="UTF-8"?>
<svg xmlns="http://www.w3.org/2000/svg" width="73" height="72" viewBox="0 0 73 72" fill="none">
  
  <g clip-path="url(#clip0_6785_25872)">
    <path d="M36.3247 21.2063C39.0529 21.2063 41.3726 22.9343 42.2647 25.3479C42.9456 23.8641 43.3682 22.446 43.3682 21.2063C43.3682 19.5581 43.0348 17.9851 42.4291 16.5529C40.64 15.487 38.5552 14.8672 36.3247 14.8672C34.0943 14.8672 32.0094 15.4917 30.2204 16.5529C29.6146 17.9851 29.2812 19.5534 29.2812 21.2063C29.2812 22.446 29.7039 23.8641 30.3847 25.3479C31.2769 22.9296 33.5966 21.2063 36.3247 21.2063Z" fill="#24AE7C" stroke="#1A7F5A" stroke-width="1.73077" stroke-linecap="round" stroke-linejoin="round"></path>
    <path d="M41.3713 39.6367L41.3666 39.6414L36.3281 45.1588L48.302 57.1327L51.8238 50.0892L41.3713 39.6367Z" fill="white" stroke="#1A7F5A" stroke-width="1.73077" stroke-linecap="round" stroke-linejoin="round"></path>
    <path d="M36.1095 33.8769C33.9776 31.3037 31.6956 28.2046 30.3855 25.3496C29.7046 23.8658 29.282 22.4477 29.282 21.2081C29.282 19.5599 29.6154 17.9869 30.2211 16.5547C26.7135 18.6443 24.3516 22.4618 24.3516 26.8429C24.3516 30.0969 27.2535 34.586 30.2023 38.3049C30.9349 39.0703 31.395 39.5211 31.395 39.5211C31.395 39.5211 33.7241 37.2437 36.3255 34.1352C36.255 34.0507 36.1799 33.9615 36.1095 33.8769Z" fill="#24AE7C" stroke="#1A7F5A" stroke-width="1.73077" stroke-linecap="round" stroke-linejoin="round"></path>
    <path d="M42.4469 38.3049C45.3958 34.586 48.2977 30.0969 48.2977 26.8429C48.2977 22.4618 45.9405 18.6443 42.4281 16.5547C43.0339 17.9869 43.3673 19.5552 43.3673 21.2081C43.3673 22.4477 42.9446 23.8658 42.2638 25.3496C40.9537 28.1999 38.6716 31.3037 36.5398 33.8769C36.4693 33.9615 36.3942 34.0507 36.3238 34.1352C33.7224 37.2437 31.3933 39.5211 31.3933 39.5211L20.8281 50.0863L24.3499 57.1298L36.3238 45.1559L41.3622 39.6385C41.7191 39.2065 42.0853 38.7604 42.4469 38.3049Z" fill="#24AE7C" stroke="#1A7F5A" stroke-width="1.73077" stroke-linecap="round" stroke-linejoin="round"></path>
  </g>
  <defs>
    <clipPath id="clip0_6785_25872">
      <rect width="31.9304" height="43.2" fill="white" transform="translate(20.3594 14.3984)"></rect>
    </clipPath>
  </defs>
</svg>





