<?xml version="1.0" encoding="UTF-8"?>
<svg xmlns="http://www.w3.org/2000/svg" width="72" height="72" viewBox="0 0 72 72" fill="none">
    <path d="M26.6907 57.1203C26.6907 57.1203 22.3945 56.4043 22.3945 48.528C22.3945 43.5159 26.6572 39.8546 27.4067 36.3557C29.5548 26.3314 25.9746 14.875 25.9746 14.875" stroke="#1A7F5A" stroke-width="1.73077" stroke-linecap="round" stroke-linejoin="round"></path>
  <path d="M41.7282 35.6367C40.4871 35.6367 39.4847 36.8158 38.8641 37.7848C38.2436 36.8158 37.2411 35.6367 36 35.6367C34.0715 35.6367 32.4199 37.3027 32.4199 39.2168C32.4199 43.7278 38.8641 47.0931 38.8641 47.0931C38.8641 47.0931 45.3083 43.7278 45.3083 39.2168C45.3083 37.3027 43.6567 35.6367 41.7282 35.6367Z" fill="#24AE7C" stroke="#1A7F5A" stroke-width="1.73077" stroke-linecap="round" stroke-linejoin="round"></path>
  <path d="M35.2842 52.1075C35.2842 52.1075 49.6046 52.1075 49.6046 39.9351C49.6046 31.3428 43.6378 25.9727 43.6378 25.9727" stroke="#1A7F5A" stroke-width="1.73077" stroke-linecap="round" stroke-linejoin="round"></path>
  <path d="M37.4316 57.1215L38.1477 52.1094" stroke="#1A7F5A" stroke-width="1.73077" stroke-linecap="round" stroke-linejoin="round"></path>
  <path d="M38.1484 14.875L46.0247 20.6032C46.0247 20.6032 46.0247 23.4673 44.5926 24.8993C42.4446 27.0474 38.8645 25.6153 38.8645 25.6153" stroke="#1A7F5A" stroke-width="1.73077" stroke-linecap="round" stroke-linejoin="round"></path>
</svg>





