<?xml version="1.0" encoding="UTF-8"?>
<svg xmlns="http://www.w3.org/2000/svg" width="72" height="72" viewBox="0 0 72 72" fill="none">
    <path d="M51.2816 41.7747C50.8166 41.5047 50.1566 41.7034 49.5566 42.2172C48.7541 41.8834 47.6028 41.3847 47.1228 41.1072C46.5903 40.7997 45.4166 39.9184 44.7378 39.3972C45.0341 38.6322 45.2403 37.8222 45.3266 36.9747C46.0053 36.8959 46.9991 36.7909 47.4416 36.7909C47.8391 36.7909 48.6866 36.8772 49.3503 36.9484C49.6128 37.4922 50.0853 37.8597 50.6328 37.8597C51.4616 37.8597 52.1328 37.0197 52.1328 35.9847C52.1328 34.9497 51.4616 34.1097 50.6328 34.1097C50.0891 34.1097 49.6166 34.4772 49.3541 35.0209C48.6941 35.0959 47.8466 35.1822 47.4491 35.1822C47.0066 35.1822 46.0128 35.0772 45.3341 34.9984C45.2441 34.1509 45.0416 33.3409 44.7416 32.5759C45.4203 32.0547 46.5941 31.1734 47.1266 30.8659C47.6066 30.5884 48.7616 30.0897 49.5603 29.7559C50.1641 30.2697 50.8203 30.4647 51.2853 30.1947C52.0016 29.7784 51.9941 28.4247 51.2703 27.1722C50.5466 25.9159 49.3766 25.2372 48.6566 25.6497C48.1916 25.9197 48.0303 26.5872 48.1766 27.3634C47.4866 27.8884 46.4778 28.6384 45.9978 28.9159C45.4653 29.2234 44.1153 29.8009 43.3241 30.1272C42.8028 29.4784 42.1953 28.8972 41.5203 28.4059C41.7903 27.7759 42.1991 26.8647 42.4166 26.4822C42.6153 26.1372 43.1141 25.4472 43.5078 24.9109C44.1116 24.9559 44.6628 24.7309 44.9366 24.2584C45.3491 23.5422 44.9591 22.5409 44.0628 22.0234C43.1666 21.5059 42.1016 21.6672 41.6891 22.3872C41.4153 22.8597 41.4978 23.4522 41.8391 23.9509C41.5728 24.5622 41.2241 25.3384 41.0253 25.6834C40.8041 26.0659 40.2191 26.8722 39.8103 27.4234C39.0603 27.0897 38.2578 26.8497 37.4178 26.7222C37.3053 25.8747 37.1291 24.4159 37.1291 23.8047C37.1291 23.2497 37.2753 22.0009 37.3841 21.1422C38.1303 20.8759 38.6291 20.4072 38.6291 19.8672C38.6291 19.0384 37.4516 18.3672 36.0041 18.3672C34.5528 18.3672 33.3791 19.0422 33.3791 19.8672C33.3791 20.4072 33.8778 20.8759 34.6241 21.1422C34.7328 22.0047 34.8791 23.2497 34.8828 23.8047C34.8828 24.4159 34.7066 25.8747 34.5978 26.7222C33.7578 26.8497 32.9553 27.0897 32.2053 27.4234C31.7966 26.8722 31.2078 26.0659 30.9866 25.6834C30.7878 25.3384 30.4391 24.5622 30.1691 23.9509C30.5103 23.4522 30.5891 22.8597 30.3153 22.3872C29.8991 21.6709 28.8378 21.5097 27.9416 22.0272C27.0453 22.5447 26.6553 23.5459 27.0678 24.2659C27.3416 24.7384 27.8966 24.9634 28.4966 24.9184C28.8903 25.4547 29.3891 26.1447 29.5916 26.4897C29.8128 26.8722 30.2178 27.7872 30.4916 28.4134C29.8166 28.9047 29.2128 29.4859 28.6916 30.1347C27.9003 29.8084 26.5466 29.2309 26.0178 28.9272C25.5378 28.6497 24.5291 27.8997 23.8391 27.3747C23.9816 26.5947 23.8241 25.9309 23.3553 25.6609C22.6391 25.2484 21.4691 25.9309 20.7453 27.1872C20.0216 28.4434 20.0178 29.7972 20.7341 30.2097C21.1991 30.4797 21.8591 30.2809 22.4591 29.7672C23.2578 30.1009 24.4128 30.5997 24.8928 30.8772C25.4253 31.1847 26.5991 32.0659 27.2778 32.5872C26.9778 33.3522 26.7791 34.1622 26.6891 35.0097C26.0103 35.0884 25.0166 35.1934 24.5741 35.1934C24.1766 35.1934 23.3291 35.1072 22.6653 35.0359C22.4028 34.4922 21.9303 34.1247 21.3828 34.1247C20.5541 34.1247 19.8828 34.9647 19.8828 35.9997C19.8828 37.0347 20.5541 37.8747 21.3828 37.8747C21.9266 37.8747 22.3991 37.5072 22.6616 36.9634C23.3216 36.8884 24.1691 36.8022 24.5666 36.8022C25.0091 36.8022 26.0028 36.9072 26.6816 36.9859C26.7716 37.8334 26.9741 38.6434 27.2741 39.4084C26.5953 39.9297 25.4216 40.8109 24.8891 41.1184C24.4091 41.3959 23.2541 41.8947 22.4553 42.2322C21.8516 41.7184 21.1953 41.5234 20.7303 41.7934C20.0141 42.2097 20.0216 43.5634 20.7453 44.8159C21.4728 46.0722 22.6391 46.7509 23.3591 46.3384C23.8241 46.0684 23.9853 45.4009 23.8391 44.6247C24.5291 44.0997 25.5378 43.3497 26.0178 43.0722C26.5503 42.7647 27.9003 42.1872 28.6916 41.8609C29.2128 42.5097 29.8203 43.0909 30.4953 43.5822C30.2253 44.2122 29.8166 45.1234 29.5991 45.5059C29.4003 45.8509 28.9016 46.5409 28.5078 47.0772C27.9041 47.0322 27.3528 47.2609 27.0791 47.7297C26.6666 48.4459 27.0566 49.4472 27.9528 49.9647C28.8491 50.4822 29.9141 50.3209 30.3266 49.6009C30.6003 49.1284 30.5178 48.5359 30.1766 48.0372C30.4428 47.4259 30.7916 46.6497 30.9903 46.3047C31.2116 45.9222 31.7966 45.1159 32.2053 44.5647C32.9553 44.8984 33.7578 45.1384 34.5978 45.2659C34.7103 46.1134 34.8866 47.5722 34.8866 48.1834C34.8866 48.7384 34.7403 49.9872 34.6316 50.8459C33.8853 51.1122 33.3866 51.5809 33.3866 52.1209C33.3866 52.9497 34.5641 53.6209 36.0116 53.6209C37.4628 53.6209 38.6366 52.9459 38.6366 52.1209C38.6366 51.5809 38.1378 51.1122 37.3916 50.8459C37.2828 49.9834 37.1366 48.7384 37.1328 48.1834C37.1328 47.5722 37.3091 46.1134 37.4178 45.2659C38.2578 45.1384 39.0603 44.8984 39.8103 44.5647C40.2191 45.1122 40.8078 45.9222 41.0291 46.3047C41.2278 46.6497 41.5766 47.4259 41.8466 48.0372C41.5053 48.5359 41.4266 49.1284 41.7003 49.6009C42.1166 50.3172 43.1778 50.4784 44.0741 49.9609C44.9703 49.4434 45.3603 48.4422 44.9478 47.7222C44.6741 47.2497 44.1191 47.0247 43.5191 47.0697C43.1253 46.5334 42.6266 45.8434 42.4241 45.4984C42.2028 45.1159 41.7978 44.2009 41.5241 43.5747C42.1991 43.0834 42.8028 42.5022 43.3241 41.8534C44.1153 42.1797 45.4691 42.7572 45.9978 43.0609C46.4778 43.3384 47.4866 44.0884 48.1766 44.6134C48.0341 45.3934 48.1916 46.0572 48.6603 46.3272C49.3766 46.7397 50.5466 46.0572 51.2703 44.8009C51.9941 43.5447 51.9978 42.1909 51.2816 41.7784V41.7747Z" stroke="#1A7F5A" stroke-width="1.5" stroke-linecap="round" stroke-linejoin="round"></path>
  <path d="M38.25 31.5C38.25 32.535 37.41 33.375 36.375 33.375C35.34 33.375 34.5 32.535 34.5 31.5C34.5 30.465 35.34 29.625 36.375 29.625C37.41 29.625 38.25 30.465 38.25 31.5Z" fill="#24AE7C" stroke="#1A7F5A" stroke-width="1.5" stroke-linecap="round" stroke-linejoin="round"></path>
  <path d="M33.375 37.125C33.375 38.16 32.535 39 31.5 39C30.465 39 29.625 38.16 29.625 37.125C29.625 36.09 30.465 35.25 31.5 35.25C32.535 35.25 33.375 36.09 33.375 37.125Z" fill="#24AE7C" stroke="#1A7F5A" stroke-width="1.5" stroke-linecap="round" stroke-linejoin="round"></path>
  <path d="M41.625 38.6211C41.625 39.6561 40.785 40.4961 39.75 40.4961C38.715 40.4961 37.875 39.6561 37.875 38.6211C37.875 37.5861 38.715 36.7461 39.75 36.7461C40.785 36.7461 41.625 37.5861 41.625 38.6211Z" fill="#24AE7C" stroke="#1A7F5A" stroke-width="1.5" stroke-linecap="round" stroke-linejoin="round"></path>
  <path d="M41.625 33.3711C41.625 33.7836 41.2912 34.1211 40.875 34.1211C40.4625 34.1211 40.125 33.7873 40.125 33.3711C40.125 32.9586 40.4588 32.6211 40.875 32.6211C41.2912 32.6211 41.625 32.9548 41.625 33.3711Z" fill="#24AE7C" stroke="#1A7F5A" stroke-width="1.5" stroke-linecap="round" stroke-linejoin="round"></path>
  <path d="M39 34.875C39 35.2875 38.6662 35.625 38.25 35.625C37.8375 35.625 37.5 35.2912 37.5 34.875C37.5 34.4625 37.8338 34.125 38.25 34.125C38.6625 34.125 39 34.4588 39 34.875Z" fill="#24AE7C" stroke="#1A7F5A" stroke-width="1.5" stroke-linecap="round" stroke-linejoin="round"></path>
  <path d="M33 33C33 33.4125 32.6662 33.75 32.25 33.75C31.8375 33.75 31.5 33.4162 31.5 33C31.5 32.5875 31.8338 32.25 32.25 32.25C32.6625 32.25 33 32.5838 33 33Z" fill="#24AE7C" stroke="#1A7F5A" stroke-width="1.5" stroke-linecap="round" stroke-linejoin="round"></path>
  <path d="M37.5 42C37.5 42.4125 37.1662 42.75 36.75 42.75C36.3375 42.75 36 42.4162 36 42C36 41.5875 36.3338 41.25 36.75 41.25C37.1625 41.25 37.5 41.5838 37.5 42Z" fill="#24AE7C" stroke="#1A7F5A" stroke-width="1.5" stroke-linecap="round" stroke-linejoin="round"></path>
  <path d="M36.375 38.625C36.375 39.0375 36.0412 39.375 35.625 39.375C35.2125 39.375 34.875 39.0412 34.875 38.625C34.875 38.2125 35.2088 37.875 35.625 37.875C36.0375 37.875 36.375 38.2088 36.375 38.625Z" fill="#24AE7C" stroke="#1A7F5A" stroke-width="1.5" stroke-linecap="round" stroke-linejoin="round"></path>
</svg>





