<?xml version="1.0" encoding="UTF-8"?>
<svg xmlns="http://www.w3.org/2000/svg" width="73" height="72" viewBox="0 0 73 72" fill="none">
  
  <g clip-path="url(#clip0_4913_7754)">
    <path d="M39.6497 31.2801C39.4615 31.2383 36.3748 30.5973 35.901 33.2381C35.7059 34.2763 35.915 35.2448 36.2355 36.0391C34.893 35.9346 34.0534 35.7848 34.0534 35.7848L33.9419 35.8022C33.8699 35.3551 33.7886 35.0683 33.7886 35.0683L27.7383 33.9267H27.736L27.7383 33.9244C27.7592 30.1932 27.2122 27.1401 26.7559 25.2658L27.6559 23.46L32.0119 14.6969H40.2977C41.1559 16.0486 44.0242 21.365 37.7161 23.6516C37.7161 23.6516 55.377 31.1826 43.3762 44.4573C31.1467 46.1295 27.8126 42.3565 27.1402 41.3195C27.0857 41.2335 27.052 41.1383 27.0404 41.0396C27.0299 40.963 27.0334 40.884 27.0485 40.8074C27.1948 40.0711 27.3168 39.3476 27.405 38.6404L33.2533 39.7959C33.3299 39.7041 33.4008 39.6089 33.4646 39.509C39.1979 42.3821 48.2026 34.9858 43.3762 35.7848C43.3077 35.7964 43.2392 35.8068 43.1707 35.8173C43.4343 35.0659 43.5795 34.1834 43.4053 33.2381C42.9315 30.5973 39.8448 31.2314 39.6566 31.2801H39.6497Z" fill="#24AE7C"></path>
    <path d="M33.4641 39.5089C33.4002 39.6088 33.3294 39.704 33.2527 39.7957L27.4045 38.6403L19.308 37.0412C17.0957 36.6034 15.8206 34.2785 16.6312 32.1719L23.4027 14.6968H32.0113L27.6553 23.4599L26.7553 25.2657L23.7371 31.323C23.3214 32.1614 23.8219 33.1694 24.7451 33.3459L27.7355 33.9266H27.7378L33.7881 35.0681C33.7881 35.0681 33.8694 35.355 33.9414 35.8021C34.0935 36.7334 34.2073 38.3569 33.4641 39.5089Z" fill="#24AE7C"></path>
    <path d="M40.2974 14.6969C41.1556 16.0486 44.0239 21.365 37.7158 23.6516C37.7158 23.6516 55.3767 31.1826 43.376 44.4573" stroke="#1A7F5A" stroke-width="1.39355" stroke-linecap="round" stroke-linejoin="round"></path>
    <path d="M32.0113 14.6968L27.6553 23.4599L26.7553 25.2657L23.7371 31.323C23.3214 32.1614 23.8219 33.1694 24.7451 33.3459L27.7355 33.9266H27.7378L33.7881 35.0681C33.7881 35.0681 33.8694 35.355 33.9414 35.8021C34.0935 36.7334 34.2073 38.3569 33.4641 39.5089C33.4002 39.6088 33.3294 39.704 33.2527 39.7957L27.4045 38.6403L19.308 37.0412C17.0957 36.6034 15.8206 34.2785 16.6312 32.1719L23.4027 14.6968" stroke="#1A7F5A" stroke-width="1.39355" stroke-linecap="round" stroke-linejoin="round"></path>
    <path d="M26.7549 25.2611C26.7549 25.2611 26.756 25.2646 26.756 25.2658C27.2124 27.1401 27.7594 30.1931 27.7385 33.9243" stroke="#1A7F5A" stroke-width="1.39355" stroke-linecap="round" stroke-linejoin="round"></path>
    <path d="M27.4053 38.6401C27.317 39.3474 27.1951 40.0708 27.0488 40.8071C27.0337 40.8838 27.0302 40.9627 27.0406 41.0394C27.0523 41.1381 27.0859 41.2333 27.1405 41.3192C27.8129 42.3563 31.147 46.1293 43.3765 44.457L42.7099 46.9701C42.7099 46.9701 32.6497 49.7409 25.8213 43.9612" stroke="#1A7F5A" stroke-width="1.39355" stroke-linecap="round" stroke-linejoin="round"></path>
    <path d="M27.0399 41.0396L25.975 43.282C25.975 43.282 25.8577 43.5143 25.6847 43.9254C24.8439 45.9297 22.6967 52.1821 26.4628 56.5033" stroke="#1A7F5A" stroke-width="1.39355" stroke-linecap="round" stroke-linejoin="round"></path>
    <path d="M42.7094 46.9702L42.1787 56.5032" stroke="#1A7F5A" stroke-width="1.39355" stroke-linecap="round" stroke-linejoin="round"></path>
    <path d="M34.0538 35.7849C34.0538 35.7849 34.8934 35.9347 36.2359 36.0392C37.9569 36.1739 40.5036 36.2355 43.1711 35.8174C43.2396 35.8069 43.3081 35.7965 43.3766 35.7849C48.203 34.9859 39.1983 42.3822 33.465 39.5091H33.4639" stroke="#1A7F5A" stroke-width="1.39355" stroke-linecap="round" stroke-linejoin="round"></path>
    <path d="M55.3773 24.1497V25.0276C55.3773 26.0948 54.5122 26.96 53.4461 26.96H48.0299C46.9626 26.96 46.0986 26.0948 46.0986 25.0276V18.7764C46.0986 16.5235 47.9242 14.6968 50.1771 14.6968H51.2977C53.5506 14.6968 55.3773 16.5235 55.3773 18.7764V24.1497Z" stroke="#1A7F5A" stroke-width="1.39355" stroke-linecap="round" stroke-linejoin="round"></path>
    <path d="M46.0986 24.1499H55.3773" stroke="#1A7F5A" stroke-width="1.39355" stroke-linecap="round" stroke-linejoin="round"></path>
    <path d="M52.5292 18.4966H48.9443V21.5914H52.5292V18.4966Z" stroke="#1A7F5A" stroke-width="1.39355" stroke-linecap="round" stroke-linejoin="round"></path>
    <path d="M50.7373 26.96V28.7193" stroke="#1A7F5A" stroke-width="1.39355" stroke-linecap="round" stroke-linejoin="round"></path>
    <path d="M39.6493 31.28C39.4611 31.2382 36.3744 30.5972 35.9006 33.238C35.7055 34.2762 35.9145 35.2447 36.2351 36.039" stroke="#1A7F5A" stroke-width="1.39355" stroke-linecap="round" stroke-linejoin="round"></path>
    <path d="M40.5064 28.8901C39.3985 29.3221 39.6494 31.2801 39.6494 31.2801H39.6563C39.8445 31.2313 42.9312 30.5972 43.405 33.238C43.5792 34.1833 43.434 35.0659 43.1704 35.8172C43.1692 35.8196 43.1692 35.8207 43.1681 35.823" stroke="#1A7F5A" stroke-width="1.39355" stroke-linecap="round" stroke-linejoin="round"></path>
  </g>
  <defs>
    <clipPath id="clip0_4913_7754">
      <rect width="40.3839" height="43.2" fill="white" transform="translate(15.6904 14)"></rect>
    </clipPath>
  </defs>
</svg>





