<?xml version="1.0" encoding="UTF-8"?>
<svg xmlns="http://www.w3.org/2000/svg" width="73" height="72" viewBox="0 0 73 72" fill="none">
  
  <path d="M25.8459 57.1203C25.8459 57.1203 21.5498 56.4043 21.5498 48.528C21.5498 43.5159 25.8125 39.8546 26.562 36.3557C28.71 26.3314 25.1299 14.875 25.1299 14.875" stroke="#1A7F5A" stroke-width="1.73077" stroke-linecap="round" stroke-linejoin="round"></path>
  <path d="M34.4385 52.1114C34.4385 52.1114 48.7589 52.1114 48.7589 39.939C48.7589 31.3467 42.7921 25.9766 42.7921 25.9766" stroke="#1A7F5A" stroke-width="1.73077" stroke-linecap="round" stroke-linejoin="round"></path>
  <path d="M36.5859 57.1215L37.302 52.1094" stroke="#1A7F5A" stroke-width="1.73077" stroke-linecap="round" stroke-linejoin="round"></path>
  <path d="M37.3027 14.875L45.179 20.6032C45.179 20.6032 45.179 23.4673 43.7469 24.8993C41.5989 27.0474 38.0188 25.6153 38.0188 25.6153" stroke="#1A7F5A" stroke-width="1.73077" stroke-linecap="round" stroke-linejoin="round"></path>
  <path d="M39.9547 38.4537C41.7235 38.3446 43.3116 37.1393 43.7959 35.3318C44.4025 33.0679 43.0604 30.7365 40.7919 30.1286C38.5233 29.5208 36.1965 30.8642 35.5887 33.1327C35.5256 33.3678 35.4974 33.6024 35.4737 33.8382C33.7049 33.9474 32.1169 35.1527 31.6326 36.9602C31.0259 39.2241 30.5726 47.2419 34.0308 48.1685C36.1056 48.7244 38.2302 46.3286 39.1568 42.8705" fill="#24AE7C"></path>
  <path d="M39.9547 38.4537C41.7235 38.3446 43.3116 37.1393 43.7959 35.3318C44.4025 33.0679 43.0604 30.7365 40.7919 30.1286C38.5233 29.5208 36.1965 30.8642 35.5887 33.1327C35.5256 33.3678 35.4974 33.6024 35.4737 33.8382C33.7049 33.9474 32.1169 35.1527 31.6326 36.9602C31.0259 39.2241 30.5726 47.2419 34.0308 48.1685C36.1056 48.7244 38.2302 46.3286 39.1568 42.8705" stroke="#1A7F5A" stroke-width="1.73077" stroke-linecap="round" stroke-linejoin="round"></path>
  <path d="M38.4232 45.6338C38.4232 45.6338 42.8939 48.3143 43.4499 46.2394C43.6352 45.5478 43.8205 44.8561 43.1289 44.6708C42.5802 44.5238 40.8687 44.8065 40.8687 44.8065C40.8687 44.8065 41.61 42.04 41.1037 41.163C40.0911 39.4092 37.9666 41.805 37.9666 41.805" fill="#24AE7C"></path>
  <path d="M38.4232 45.6338C38.4232 45.6338 42.8939 48.3143 43.4499 46.2394C43.6352 45.5478 43.8205 44.8561 43.1289 44.6708C42.5802 44.5238 40.8687 44.8065 40.8687 44.8065C40.8687 44.8065 41.61 42.04 41.1037 41.163C40.0911 39.4092 37.9666 41.805 37.9666 41.805" stroke="#1A7F5A" stroke-width="1.73077" stroke-linecap="round" stroke-linejoin="round"></path>
  <path d="M35.8037 36.0364C35.8037 36.0364 34.7414 37.2343 34.5561 37.9259C34.3707 38.6175 33.8295 39.9551 34.6917 40.1861C36.7666 40.7421 37.3226 38.6672 37.3226 38.6672" stroke="#1A7F5A" stroke-width="1.73077" stroke-linecap="round" stroke-linejoin="round"></path>
  <path d="M53.0615 34.708L57.9301 33.5692" stroke="#1A7F5A" stroke-width="1.73" stroke-linecap="round"></path>
  <path d="M51.7764 48.6489L56.3545 50.659" stroke="#1A7F5A" stroke-width="1.73" stroke-linecap="round"></path>
  <path d="M54.4102 41.8623L59.389 42.3215" stroke="#1A7F5A" stroke-width="1.73" stroke-linecap="round"></path>
</svg>





