<?xml version="1.0" encoding="UTF-8"?>
<svg xmlns="http://www.w3.org/2000/svg" width="72" height="72" viewBox="0 0 72 72" fill="none">
    <g clip-path="url(#clip0_4913_7627)">
    <path d="M25.1986 14.8672H46.7986C46.7986 14.8672 43.6901 18.9148 42.5725 20.0324C38.3464 24.2585 24.7525 26.1508 24.2595 35.5281C23.7899 44.4498 35.7873 47.4081 42.5725 51.9628C45.573 53.9773 46.7986 57.1281 46.7986 57.1281H25.1986C25.1986 57.1281 26.457 53.7002 28.9551 51.9628C35.4821 47.4174 47.7377 45.8585 47.7377 35.0585C47.7377 28.015 34.8904 24.2538 30.3638 20.9715C28.7438 19.7976 25.1986 14.8672 25.1986 14.8672Z" fill="#24AE7C"></path>
    <path d="M27.5479 56.6562H44.4522" stroke="#1A7F5A" stroke-width="1.73077" stroke-linecap="round" stroke-linejoin="round"></path>
    <path d="M30.834 52.9023H41.1644" stroke="#1A7F5A" stroke-width="1.73077" stroke-linecap="round" stroke-linejoin="round"></path>
    <path d="M33.1826 45.3867H38.8174" stroke="#1A7F5A" stroke-width="1.73077" stroke-linecap="round" stroke-linejoin="round"></path>
    <path d="M28.9561 41.6328H43.043" stroke="#1A7F5A" stroke-width="1.73077" stroke-linecap="round" stroke-linejoin="round"></path>
    <path d="M26.6084 37.875H45.8606" stroke="#1A7F5A" stroke-width="1.73077" stroke-linecap="round" stroke-linejoin="round"></path>
    <path d="M26.6084 34.1172H45.8606" stroke="#1A7F5A" stroke-width="1.73077" stroke-linecap="round" stroke-linejoin="round"></path>
    <path d="M28.9561 30.3594H43.043" stroke="#1A7F5A" stroke-width="1.73077" stroke-linecap="round" stroke-linejoin="round"></path>
    <path d="M33.1826 26.6055H38.8174" stroke="#1A7F5A" stroke-width="1.73077" stroke-linecap="round" stroke-linejoin="round"></path>
    <path d="M30.834 19.0938H41.1644" stroke="#1A7F5A" stroke-width="1.73077" stroke-linecap="round" stroke-linejoin="round"></path>
    <path d="M27.5469 15.3359H44.4512" stroke="#1A7F5A" stroke-width="1.73077" stroke-linecap="round" stroke-linejoin="round"></path>
    <path d="M47.7371 35.9978C47.7371 44.1729 35.9979 48.2065 35.9979 48.2065C35.9979 48.2065 24.2588 44.1729 24.2588 35.9978C24.2588 27.8226 35.9979 23.7891 35.9979 23.7891C35.9979 23.7891 47.7371 27.8226 47.7371 35.9978Z" stroke="#1A7F5A" stroke-width="1.73077" stroke-linecap="round" stroke-linejoin="round"></path>
    <path d="M46.7973 14.8672C44.2804 20.7649 35.9973 23.7889 35.9973 23.7889C35.9973 23.7889 27.7141 20.7649 25.1973 14.8672" stroke="#1A7F5A" stroke-width="1.73077" stroke-linecap="round" stroke-linejoin="round"></path>
    <path d="M25.1973 57.1288C27.6954 51.2076 35.9973 48.207 35.9973 48.207C35.9973 48.207 44.3039 51.2029 46.7973 57.1288" stroke="#1A7F5A" stroke-width="1.73077" stroke-linecap="round" stroke-linejoin="round"></path>
  </g>
  <defs>
    <clipPath id="clip0_4913_7627">
      <rect width="24.4174" height="43.2" fill="white" transform="translate(23.791 14.3984)"></rect>
    </clipPath>
  </defs>
</svg>





