<?xml version="1.0" encoding="UTF-8"?>
<svg xmlns="http://www.w3.org/2000/svg" width="73" height="72" viewBox="0 0 73 72" fill="none">
  
  <path d="M54.6365 40.4443C51.2197 40.4443 51.2197 42.2427 47.7984 42.2427C46.2968 42.2427 45.4561 41.8965 44.6963 41.5053V55.748C44.6963 56.2335 45.0919 56.6292 45.5775 56.6292H57.298C57.7835 56.6292 58.1791 56.2335 58.1791 55.748V41.4109C57.28 40.9389 56.4258 40.4443 54.632 40.4443H54.6365Z" fill="#24AE7C"></path>
  <path d="M31.9424 20.9015L44.3508 29.8301" stroke="#1A7F5A" stroke-width="1.73" stroke-linecap="round" stroke-linejoin="round"></path>
  <path d="M40.6731 29.5557L28.1433 46.9679L20.8467 41.7168L33.4978 24.1338" stroke="#1A7F5A" stroke-width="1.73" stroke-linecap="round" stroke-linejoin="round"></path>
  <path d="M39.9082 14.4498L47.9377 20.2269" stroke="#1A7F5A" stroke-width="1.73" stroke-linecap="round" stroke-linejoin="round"></path>
  <path d="M39.6162 23.3245L42.8082 18.8872" stroke="#1A7F5A" stroke-linecap="round" stroke-linejoin="round"></path>
  <path d="M23.8001 47.9524L22.9639 48.7797L20.7744 47.2061L21.3139 46.1182" stroke="#1A7F5A" stroke-width="1.73" stroke-linecap="round" stroke-linejoin="round"></path>
  <path d="M21.8715 47.9929L15.5684 56.7507" stroke="#1A7F5A" stroke-width="1.73" stroke-linecap="round" stroke-linejoin="round"></path>
  <path d="M26.4304 47.9525L20.46 43.6545L21.2108 41.9821L27.7791 46.7071L26.4304 47.9525Z" stroke="#1A7F5A" stroke-width="1.73" stroke-linecap="round" stroke-linejoin="round"></path>
  <path d="M37.459 22.475L42.0986 16.0236L45.7492 18.6491L41.1186 25.0871" stroke="#1A7F5A" stroke-width="1.73" stroke-linecap="round" stroke-linejoin="round"></path>
  <path d="M26.0703 42.1527L29.7209 44.7782" stroke="#1A7F5A" stroke-linecap="round" stroke-linejoin="round"></path>
  <path d="M28.7412 40.75L31.2948 42.5888" stroke="#1A7F5A" stroke-linecap="round" stroke-linejoin="round"></path>
  <path d="M29.2217 37.7738L32.8723 40.3993" stroke="#1A7F5A" stroke-linecap="round" stroke-linejoin="round"></path>
  <path d="M31.8926 36.3711L34.4462 38.2099" stroke="#1A7F5A" stroke-linecap="round" stroke-linejoin="round"></path>
  <path d="M32.373 33.3949L36.0191 36.0204" stroke="#1A7F5A" stroke-linecap="round" stroke-linejoin="round"></path>
  <path d="M35.0439 31.9922L37.5976 33.831" stroke="#1A7F5A" stroke-linecap="round" stroke-linejoin="round"></path>
  <path d="M35.5205 29.016L39.1711 31.6415" stroke="#1A7F5A" stroke-linecap="round" stroke-linejoin="round"></path>
  <path d="M23.8809 40.5791L29.8018 32.3518" stroke="#1A7F5A" stroke-linecap="round" stroke-linejoin="round"></path>
  <path d="M31.2318 30.3602L30.7598 30.9896" stroke="#1A7F5A" stroke-linecap="round" stroke-linejoin="round"></path>
  <path d="M48.7429 34.1368C48.7429 34.9641 48.3877 35.3642 47.7718 35.9127L46.432 37.1041C45.3306 38.0841 44.7012 39.4868 44.7012 40.9569V55.7436C44.7012 56.2291 45.0968 56.6248 45.5823 56.6248H57.3029C57.7884 56.6248 58.184 56.2291 58.184 55.7436V40.9569C58.184 39.4823 57.5546 38.0796 56.4532 37.1041L55.1134 35.9127C54.493 35.3642 54.1378 34.9641 54.1378 34.1368" stroke="#1A7F5A" stroke-width="1.73" stroke-linecap="round" stroke-linejoin="round"></path>
  <path d="M55.037 32.3519H47.8438L48.2933 29.6544H54.5874L55.037 32.3519Z" stroke="#1A7F5A" stroke-width="1.73" stroke-linecap="round" stroke-linejoin="round"></path>
  <path d="M55.4857 26.0577H47.3933C46.8967 26.0577 46.4941 26.4603 46.4941 26.9569V28.7552C46.4941 29.2518 46.8967 29.6544 47.3933 29.6544H55.4857C55.9823 29.6544 56.3849 29.2518 56.3849 28.7552V26.9569C56.3849 26.4603 55.9823 26.0577 55.4857 26.0577Z" stroke="#1A7F5A" stroke-width="1.73" stroke-linecap="round" stroke-linejoin="round"></path>
  <path d="M44.6963 41.4602C45.4696 41.8649 46.3058 42.238 47.8433 42.238C51.2152 42.238 51.2152 40.4397 54.587 40.4397C56.4213 40.4397 57.2575 40.9747 58.1836 41.4602" stroke="#1A7F5A" stroke-width="1.73" stroke-linecap="round" stroke-linejoin="round"></path>
</svg>





