<?xml version="1.0" encoding="UTF-8"?>
<svg xmlns="http://www.w3.org/2000/svg" width="72" height="72" viewBox="0 0 72 72" fill="none">
    <path d="M14.8506 57.1483L15.6021 55.2718C15.7866 54.8083 16.1061 54.4258 16.4976 54.1558C16.8936 53.8903 17.3661 53.7373 17.8656 53.7373C19.2156 53.7373 20.3091 52.6438 20.3091 51.2938V50.7178C20.3091 50.0473 20.5836 49.4353 21.0246 48.9943C21.4656 48.5533 22.0731 48.2788 22.7481 48.2788C24.5436 48.2788 26.1321 47.1133 26.6676 45.3988L27.2391 43.5898" stroke="#1A7F5A" stroke-width="1.73077" stroke-linecap="round" stroke-linejoin="round"></path>
  <path d="M25.3358 36.6856C24.7328 34.9756 24.4043 33.1396 24.4043 31.2226C24.3998 22.1821 31.7348 14.8516 40.7753 14.8516C49.8158 14.8516 57.1508 22.1821 57.1508 31.2271C57.1508 40.2721 49.8203 47.6026 40.7753 47.6026C39.1238 47.6026 37.5263 47.3596 36.0188 46.9006" stroke="#1A7F5A" stroke-width="1.73077" stroke-linecap="round" stroke-linejoin="round"></path>
  <path d="M28.796 33.9303C28.6025 33.0618 28.499 32.1573 28.499 31.2258C28.499 24.4443 33.998 18.9453 40.7795 18.9453C47.561 18.9453 53.06 24.4443 53.06 31.2258C53.06 38.0073 47.561 43.5063 40.7795 43.5063C40.0685 43.5063 39.3755 43.4478 38.696 43.3308" stroke="#1A7F5A" stroke-width="1.73077" stroke-linecap="round" stroke-linejoin="round"></path>
  <path d="M40.7754 24.4062C43.3179 24.4062 45.5364 25.7968 46.7109 27.8623" stroke="#1A7F5A" stroke-width="1.73077" stroke-linecap="round" stroke-linejoin="round"></path>
  <path d="M34.903 43.708C33.0355 45.5755 30.079 46.606 27.9055 44.4325C27.6355 44.1625 27.415 43.879 27.2395 43.591C26.0065 41.5435 27.001 39.0685 28.63 37.4395C30.493 35.572 34.903 34.06 36.5905 35.7475C38.278 37.4395 36.766 41.845 34.903 43.708Z" fill="#24AE7C" stroke="#1A7F5A" stroke-width="1.73077" stroke-linecap="round" stroke-linejoin="round"></path>
</svg>





