<?xml version="1.0" encoding="UTF-8"?>
<svg xmlns="http://www.w3.org/2000/svg" width="73" height="72" viewBox="0 0 73 72" fill="none">
  
  <path d="M53.0196 41.8117C53.0196 50.2395 46.1008 57.0716 37.566 57.0716C29.0312 57.0716 22.1123 50.2395 22.1123 41.8117C22.1123 28.0052 37.566 14.9253 37.566 14.9253C37.566 14.9253 53.0196 28.0052 53.0196 41.8117Z" stroke="#1A7F5A" stroke-width="1.73" stroke-linecap="round" stroke-linejoin="round"></path>
  <path d="M27.7324 47.9399L34.0544 52.1545V45.1301L27.7324 41.6179V47.9399Z" fill="#24AE7C" stroke="#1A7F5A" stroke-width="1.73" stroke-linecap="round" stroke-linejoin="round"></path>
  <path d="M40.3766 47.9399L34.0547 52.1545V45.1301L40.3766 41.6179V47.9399Z" fill="#24AE7C" stroke="#1A7F5A" stroke-width="1.73" stroke-linecap="round" stroke-linejoin="round"></path>
  <path d="M27.7324 41.618L34.0544 38.1058L40.3763 41.618" stroke="#1A7F5A" stroke-width="1.73" stroke-linecap="round" stroke-linejoin="round"></path>
  <path d="M41.0788 38.7935V36.7009L34.7568 33.1887V35.2748" fill="#24AE7C"></path>
  <path d="M41.0788 38.7935V36.7009L34.7568 33.1887V35.2748" stroke="#1A7F5A" stroke-width="1.73" stroke-linecap="round" stroke-linejoin="round"></path>
  <path d="M41.0791 38.008V36.7009L47.4011 33.1887V39.5107L43.1919 42.3167" fill="#24AE7C"></path>
  <path d="M41.0791 38.008V36.7009L47.4011 33.1887V39.5107L43.1919 42.3167" stroke="#1A7F5A" stroke-width="1.73" stroke-linecap="round" stroke-linejoin="round"></path>
  <path d="M34.7568 33.1887L41.0788 29.6765L47.4007 33.1887" stroke="#1A7F5A" stroke-width="1.73" stroke-linecap="round" stroke-linejoin="round"></path>
</svg>





