<?xml version="1.0" encoding="UTF-8"?>
<svg xmlns="http://www.w3.org/2000/svg" width="72" height="72" viewBox="0 0 72 72" fill="none">
    <path d="M43.1611 14.8672H50.3214V22.0274" stroke="#1A7F5A" stroke-width="1.73077" stroke-linecap="round" stroke-linejoin="round"></path>
  <path d="M43.1617 29.9036C43.1617 34.2522 39.7152 37.7798 35.2854 37.7798C30.8556 37.7798 27.4092 34.2522 27.4092 29.9036C27.4092 25.5549 30.8556 22.0273 35.2854 22.0273C39.7152 22.0273 43.1617 25.5549 43.1617 29.9036Z" fill="#24AE7C" stroke="#1A7F5A" stroke-width="1.73077" stroke-linecap="round" stroke-linejoin="round"></path>
  <path d="M50.3216 14.8672L41.209 23.9798" stroke="#1A7F5A" stroke-width="1.73077" stroke-linecap="round" stroke-linejoin="round"></path>
  <path d="M29.5579 43.5181C33.9078 43.5181 37.4341 39.9918 37.4341 35.6419C37.4341 31.2919 33.9078 27.7656 29.5579 27.7656C25.208 27.7656 21.6816 31.2919 21.6816 35.6419C21.6816 39.9918 25.208 43.5181 29.5579 43.5181Z" stroke="#1A7F5A" stroke-width="1.73077" stroke-linecap="round" stroke-linejoin="round"></path>
  <path d="M29.5576 57.12V43.5156" stroke="#1A7F5A" stroke-width="1.73077" stroke-linecap="round" stroke-linejoin="round"></path>
  <path d="M23.8301 51.3906H35.2864" stroke="#1A7F5A" stroke-width="1.73077" stroke-linecap="round" stroke-linejoin="round"></path>
</svg>





