<?xml version="1.0" encoding="UTF-8"?>
<svg xmlns="http://www.w3.org/2000/svg" width="72" height="72" viewBox="0 0 72 72" fill="none">
    <g clip-path="url(#clip0_9031_10830)">
    <path d="M40.4761 58.4988V53.0234C40.4761 49.9523 41.5781 47.0362 43.3552 44.5567C43.8419 43.8805 44.1312 43.0494 44.1495 42.1477C44.1955 39.8656 42.3679 37.9027 40.1409 37.8369C38.4649 37.7853 36.5776 38.7526 35.8842 40.1849C35.3057 38.9968 34.5067 37.8369 31.7516 37.8369C29.7082 37.8369 27.8853 39.5415 27.6465 41.5983C27.6465 41.5983 29.2261 42.0632 30.1444 43.9416C30.8837 45.4536 30.4888 47.7734 30.4888 47.7734C31.2924 49.4639 31.7516 51.3094 31.7516 53.2206V58.4988" fill="#24AE7C"></path>
    <path d="M40.4758 13.5129V18.9853C40.4758 22.0547 41.5778 24.9692 43.3549 27.4472C43.8416 28.123 44.1309 28.9538 44.1493 29.8549C44.1952 32.1358 42.3676 34.0976 40.1406 34.1633C38.4646 34.2149 36.5773 33.2481 35.884 31.8166C35.3054 33.004 34.5064 34.1633 31.7513 34.1633C29.5931 34.1633 27.6783 32.2625 27.6187 30.0614C27.5911 28.9866 27.9539 28.001 28.5738 27.2407C30.5299 24.8425 31.7513 21.9139 31.7513 18.7882V13.5129" fill="#24AE7C"></path>
    <path d="M40.4766 13.9592V19.3133C40.4766 22.3164 41.5786 25.1679 43.3557 27.5924C43.8424 28.2536 44.1317 29.0664 44.1501 29.948C44.196 32.1796 42.3684 34.099 40.1414 34.1633C38.4654 34.2138 36.5781 33.2679 35.8848 31.8674" stroke="#1A7F5A" stroke-width="1.73" stroke-linecap="round" stroke-linejoin="round"></path>
    <path d="M37.2615 30.0307C37.2615 30.0307 36.3431 30.949 35.884 31.8674C35.3054 33.0291 34.5064 34.1633 31.7513 34.1633C29.5931 34.1633 27.6783 32.3036 27.6187 30.15C27.5911 29.0985 27.9539 28.1342 28.5738 27.3904C30.5299 25.0439 31.7513 22.1786 31.7513 19.1205V13.9592" stroke="#1A7F5A" stroke-width="1.73" stroke-linecap="round" stroke-linejoin="round"></path>
    <path d="M40.4766 58.041V52.6869C40.4766 49.6838 41.5786 46.8323 43.3557 44.4078C43.8424 43.7466 44.1317 42.9338 44.1501 42.0522C44.196 39.8206 42.3684 37.9012 40.1414 37.8369C38.4654 37.7864 36.5781 38.7323 35.8848 40.1328" stroke="#1A7F5A" stroke-width="1.73" stroke-linecap="round" stroke-linejoin="round"></path>
    <path d="M30.4883 47.5532C31.2919 49.2063 31.751 51.0109 31.751 52.8798V58.041" stroke="#1A7F5A" stroke-width="1.73" stroke-linecap="round" stroke-linejoin="round"></path>
    <path d="M37.2618 41.9696C37.2618 41.9696 36.3434 41.0512 35.8842 40.1328C35.3057 38.9711 34.5067 37.8369 31.7516 37.8369C29.7082 37.8369 27.8853 39.5038 27.6465 41.515" stroke="#1A7F5A" stroke-width="1.73" stroke-linecap="round" stroke-linejoin="round"></path>
    <path d="M28.5369 58.0409V57.6506C28.5369 54.5236 28.9364 51.3873 29.988 48.4486C30.2313 47.7644 30.8329 46.9608 30.8329 46.1067C30.8329 43.572 29.1385 41.5149 27.6186 41.5149C26.0987 41.5149 24.4043 43.572 24.4043 46.1067C24.4043 46.9654 25.0058 47.7644 25.2492 48.4486C26.3007 51.3919 26.7002 54.5282 26.7002 57.6506V58.0409" stroke="#1A7F5A" stroke-width="1.73" stroke-linecap="round" stroke-linejoin="round"></path>
    <path d="M18.7227 33.1254L21.3997 34.2458L21.5375 32.4182L24.2191 33.5386" stroke="#1A7F5A" stroke-width="1.2" stroke-linecap="round" stroke-linejoin="round"></path>
    <path d="M18.25 40.1692L21.152 40.0314L20.4862 38.3187L23.3883 38.1809" stroke="#1A7F5A" stroke-width="1.2" stroke-linecap="round" stroke-linejoin="round"></path>
    <path d="M53.2789 33.1254L50.6019 34.2458L50.4642 32.4182L47.7871 33.5386" stroke="#1A7F5A" stroke-width="1.2" stroke-linecap="round" stroke-linejoin="round"></path>
    <path d="M53.7515 40.1692L50.8541 40.0314L51.5153 38.3187L48.6133 38.1809" stroke="#1A7F5A" stroke-width="1.2" stroke-linecap="round" stroke-linejoin="round"></path>
  </g>
  <defs>
    <clipPath id="clip0_9031_10830">
      <rect width="36.4179" height="45" fill="white" transform="translate(17.791 13.5)"></rect>
    </clipPath>
  </defs>
</svg>





