<?xml version="1.0" encoding="UTF-8"?>
<svg xmlns="http://www.w3.org/2000/svg" width="73" height="72" viewBox="0 0 73 72" fill="none">
  
  <g clip-path="url(#clip0_4913_7343)">
    <path d="M55.793 33.0073C55.7976 32.9249 55.8068 32.847 55.8113 32.7645C56.8192 32.5034 57.5888 31.5872 57.6162 30.4327C57.6254 29.7226 57.3597 29.0721 56.9062 28.6094C56.6405 28.3346 56.3061 28.133 55.9396 28.0185C55.9396 27.9268 55.935 27.8398 55.9304 27.7528C56.8879 27.3725 57.5475 26.3601 57.4055 25.1644C57.3185 24.4223 56.9245 23.7855 56.3931 23.3961C56.0908 23.1762 55.7518 23.0434 55.3945 22.993C55.3716 22.883 55.8526 22.1867 56.0129 21.8523C56.3061 21.2521 56.3336 20.4642 55.99 19.6946C55.6464 18.9249 54.9776 18.3523 54.2859 18.1691C53.9469 18.0728 53.0811 17.9125 52.9711 17.798C53.0673 17.491 53.0857 17.1475 52.9849 16.7947C52.9391 16.6115 52.8566 16.4282 52.7467 16.245C52.6413 16.0617 52.4993 15.8877 52.3298 15.7227C51.9954 15.3929 51.5235 15.1272 50.9967 14.9806C49.9202 14.6966 48.9353 15.0172 48.4222 15.5303C48.0557 15.8831 47.845 16.7718 47.8313 16.7764C47.7855 16.7901 47.7397 16.8176 47.6939 16.8359C47.6297 16.7214 47.561 16.6115 47.4785 16.5153C47.3686 16.3962 47.2495 16.2862 47.1029 16.19C46.9517 16.0938 46.7685 16.0342 46.5669 16.0068C46.3654 15.9747 46.1409 15.9655 45.9027 15.9884C45.6782 16.0297 45.4354 16.0984 45.1881 16.1992C44.9315 16.3 44.7529 16.4282 44.5376 16.5748C44.3177 16.726 44.1619 16.8909 44.0062 17.0742C43.8458 17.2574 43.713 17.4498 43.6305 17.6331C43.5389 17.8209 43.461 18.0133 43.4106 18.1965C43.3328 18.563 43.3144 18.9249 43.3923 19.2456C43.5389 19.8961 43.9558 20.4275 44.565 20.7391C44.565 20.7391 44.5696 20.7391 44.5742 20.7391C44.5742 20.7391 44.5696 20.7391 44.565 20.7345C43.3694 20.084 41.8302 20.6795 41.2667 21.921C40.7079 23.1442 41.2393 24.5368 42.4349 25.1736C42.4349 25.1736 42.4395 25.1736 42.444 25.1736C42.444 25.1736 42.4395 25.1736 42.4349 25.169C41.8256 24.8575 41.1614 24.8254 40.5704 24.972C39.9749 25.1324 39.4847 25.4256 39.1549 25.9295C38.8205 26.4288 38.7289 27.006 38.8205 27.5924C38.8434 27.7344 38.8755 27.8948 38.9304 28.023C38.9854 28.1513 39.0495 28.2888 39.1228 28.4262C39.2511 28.6644 38.5731 28.4491 38.1425 28.2338C37.6661 28.0185 37.3363 27.8719 37.0477 27.9268C36.7591 27.9818 36.4934 28.2521 36.136 28.6323C35.962 28.8202 35.7696 29.0401 35.5817 29.2966C35.4352 29.489 35.2794 29.4295 35.3023 29.1867C35.3252 28.8843 35.339 28.5728 35.3298 28.33C35.3298 28.0597 35.3161 27.849 35.2977 27.652C35.2794 27.5649 35.2657 27.4779 35.2428 27.4C35.229 27.3588 35.2199 27.3359 35.1878 27.2901C35.1511 27.2305 35.1099 27.1755 35.0641 27.1206C34.3586 26.2639 32.9339 25.989 31.7704 26.6625C32.3384 26.3005 32.7141 25.7829 32.9156 25.2194C33.1126 24.6513 33.1172 24.0558 32.8561 23.474C32.3384 22.3241 30.8862 21.6828 29.6356 22.2371C29.6219 22.2417 29.6082 22.2508 29.5944 22.2554C29.6082 22.2508 29.6219 22.2463 29.6356 22.2417C30.8725 21.7057 31.5001 20.2535 30.7213 18.815C30.6206 18.6363 30.4923 18.4668 30.364 18.3156C30.2403 18.1645 30.0846 18.027 29.9151 17.9033C29.7502 17.7797 29.5807 17.6789 29.4112 17.601C29.2234 17.5185 29.0355 17.459 28.8569 17.4269C28.5041 17.3536 28.1285 17.3903 27.8216 17.514C27.5925 17.6056 27.4001 17.743 27.226 17.9171C27.2215 17.9079 27.2123 17.9033 27.2077 17.8942C27.5055 17.3994 27.5605 16.7993 27.1986 16.1671C27.0886 15.9976 26.942 15.8327 26.768 15.6723C26.571 15.4983 26.429 15.3883 26.2595 15.2829C26.09 15.173 25.9021 15.0814 25.6868 15.0127C25.4807 14.9394 25.2516 14.889 25.0089 14.8661C24.0423 14.7561 23.0757 15.1501 22.5947 15.7456C22.3336 16.0526 22.2053 16.3962 22.1778 16.7352C22.0312 16.7856 21.8892 16.8405 21.7518 16.9001C21.4815 16.7031 21.1471 16.584 20.7577 16.5702C19.9973 16.5336 19.0857 16.9688 18.5176 17.7247C17.945 18.4806 17.8259 19.3281 18.0137 19.9832C18.1099 20.3359 18.2977 20.6383 18.5405 20.8811C18.4993 20.9956 18.4581 21.1147 18.4214 21.2292C18.0733 21.243 17.7343 21.3438 17.4182 21.5316C16.8456 21.8752 16.3875 22.5028 16.2363 23.2587C16.0851 24.0146 16.2638 24.7338 16.6486 25.256C16.873 25.563 17.1708 25.7966 17.5144 25.957C17.5052 26.0532 17.5006 26.1494 17.4915 26.2502C17.125 26.3464 16.7906 26.525 16.5066 26.7861C16.0301 27.2259 15.7232 27.881 15.7141 28.6048C15.7003 29.773 16.4424 30.7076 17.4365 31.0054C17.4365 31.0878 17.4411 31.1703 17.4457 31.2573C16.4745 31.6238 15.8057 32.6179 15.9019 33.7632C15.9981 34.9131 16.8227 35.7835 17.8442 35.985C17.8534 36.0629 17.8671 36.1408 17.8763 36.2233C16.9372 36.6722 16.3462 37.7213 16.5432 38.8574C16.7356 39.9981 17.6381 40.7952 18.6779 40.9052C18.6963 40.983 18.71 41.0609 18.7283 41.1342C17.8305 41.6656 17.3357 42.7697 17.6472 43.8966C17.9542 45.019 18.9345 45.7337 19.9744 45.7337C20.0018 45.8116 20.0248 45.8894 20.0522 45.9673C19.2277 46.5995 18.8749 47.7631 19.3468 48.8717C19.6354 49.5543 20.1805 50.0537 20.7989 50.2781C21.1563 50.411 21.5411 50.4476 21.9167 50.3881C21.9625 50.4751 22.0083 50.553 22.0541 50.6401C21.8068 50.9287 21.6327 51.2723 21.564 51.6571C21.4998 51.9823 21.5044 52.3351 21.6006 52.6878C21.6831 53.0406 21.8663 53.3933 22.1183 53.7186C22.6451 54.3645 23.4101 54.7585 24.1385 54.7631C24.4912 54.7722 24.8256 54.6943 25.1188 54.5294C25.1417 54.5157 25.1646 54.4974 25.1921 54.4836C25.2975 54.5569 25.4028 54.6348 25.5082 54.6989C25.5082 54.7264 25.499 54.7539 25.4944 54.7814C25.4761 55.1021 25.5402 55.4457 25.7785 55.8076C25.8976 55.9771 26.0487 56.1374 26.2274 56.2932C26.319 56.371 26.4152 56.4443 26.5206 56.5176C26.6259 56.5818 26.7405 56.6367 26.8596 56.6917C27.0978 56.7971 27.3635 56.9025 27.6429 56.9391C27.7849 56.962 27.9269 56.9803 28.0735 56.9895L28.2934 56.9987C28.3621 56.9666 28.44 56.9803 28.5133 56.9666C29.1088 56.8887 29.6311 56.5955 30.0113 56.229C30.3915 55.8534 30.648 55.4365 30.7626 55.0379C30.8862 54.4241 30.3778 53.4254 30.3915 53.4116C30.8404 53.7552 31.3902 53.911 31.9536 53.856C32.6087 53.7919 33.2684 53.4437 33.7173 52.8619C34.1662 52.2847 34.3266 51.5929 34.2304 50.9607C34.18 50.6492 34.0746 50.3285 33.8914 50.0949C33.7631 49.9117 33.8776 49.7696 34.0792 49.8567C34.3632 49.9758 34.6518 50.0812 34.8946 50.1453C35.4077 50.301 35.7512 50.3927 36.0261 50.3011C36.301 50.2003 36.53 49.9025 36.8369 49.481C36.9881 49.2566 37.6294 49.2886 37.689 49.6689C37.7852 50.1728 37.8356 50.553 38.0509 50.7546C38.0784 50.7821 38.1104 50.8004 38.1425 50.8233C38.17 50.8508 38.2021 50.8737 38.2387 50.892C38.3166 50.9424 38.3807 50.9241 38.5411 51.0478C38.8205 51.2264 39.1274 51.3501 39.4435 51.4051C40.007 51.5059 40.5888 51.3868 41.0881 51.0753C41.0927 51.0844 41.1018 51.0936 41.1064 51.1027C40.1765 51.9457 40.0299 53.43 41.0377 54.534C41.5691 55.1112 42.3433 55.4502 43.09 55.4457C43.1358 55.4457 43.1816 55.4411 43.2228 55.4365C43.5618 56.426 44.5009 57.1407 45.6049 57.1407C46.4845 57.1407 47.2587 56.6871 47.7122 56.0046C47.9595 56.0137 48.2161 55.9908 48.4864 55.9267C48.8986 55.8121 49.343 55.606 49.6866 55.3036C50.0576 55.0104 50.2867 54.6577 50.4653 54.305C50.6119 53.9476 50.699 53.5903 50.6761 53.2513C50.6577 52.8619 50.5386 52.5 50.3371 52.1931C50.3966 52.1106 50.4516 52.0236 50.5112 51.9365C50.8731 52.0281 51.2487 52.0236 51.6197 51.9228C52.2565 51.7441 52.8612 51.2723 53.2002 50.5942C53.7545 49.4994 53.475 48.3128 52.6917 47.6348C52.7238 47.557 52.7512 47.4745 52.7833 47.3966C53.8186 47.4424 54.8356 46.769 55.1838 45.6512C55.5411 44.5334 55.0921 43.4065 54.2172 42.843C54.2355 42.7651 54.2584 42.6872 54.2767 42.6093C55.3166 42.536 56.242 41.7618 56.4756 40.6303C56.7092 39.4988 56.1503 38.4268 55.2204 37.9503C55.2341 37.8725 55.2433 37.7946 55.257 37.7167C56.2878 37.5472 57.1444 36.6997 57.2681 35.5498C57.3964 34.4091 56.755 33.3921 55.793 32.9981V33.0073Z" fill="#24AE7C" stroke="#1A7F5A" stroke-width="1.73077" stroke-miterlimit="10"></path>
    <path d="M49.7275 21.4062C50.7399 21.4062 51.5599 22.2263 51.5599 23.2387C51.5599 24.2511 50.7399 25.0711 49.7275 25.0711" stroke="#1A7F5A" stroke-width="1.73077" stroke-linecap="round" stroke-linejoin="round"></path>
    <path d="M52.0186 32.3984C53.031 32.3984 53.8509 33.2185 53.8509 34.2309C53.8509 35.2433 53.031 36.0633 52.0186 36.0633" stroke="#1A7F5A" stroke-width="1.73077" stroke-linecap="round" stroke-linejoin="round"></path>
    <path d="M46.9785 36.0703C47.9909 36.0703 48.8109 36.8903 48.8109 37.9028C48.8109 38.9152 47.9909 39.7352 46.9785 39.7352" stroke="#1A7F5A" stroke-width="1.73077" stroke-linecap="round" stroke-linejoin="round"></path>
    <path d="M49.7275 42.9375C50.7399 42.9375 51.5599 43.7575 51.5599 44.77C51.5599 45.7824 50.7399 46.6024 49.7275 46.6024" stroke="#1A7F5A" stroke-width="1.73077" stroke-linecap="round" stroke-linejoin="round"></path>
    <path d="M44.6885 47.9766C45.7009 47.9766 46.5209 48.7966 46.5209 49.809C46.5209 50.8214 45.7009 51.6415 44.6885 51.6415" stroke="#1A7F5A" stroke-width="1.73077" stroke-linecap="round" stroke-linejoin="round"></path>
    <path d="M47.8955 27.8203C48.9079 27.8203 49.7279 28.6403 49.7279 29.6528C49.7279 30.6652 48.9079 31.4852 47.8955 31.4852" stroke="#1A7F5A" stroke-width="1.73077" stroke-linecap="round" stroke-linejoin="round"></path>
    <path d="M41.4814 41.5625C42.4938 41.5625 43.3138 42.3825 43.3138 43.3949C43.3138 44.4074 42.4938 45.2274 41.4814 45.2274" stroke="#1A7F5A" stroke-width="1.73077" stroke-linecap="round" stroke-linejoin="round"></path>
    <path d="M37.8174 38.3594C38.8298 38.3594 39.6498 39.1794 39.6498 40.1918C39.6498 41.2043 38.8298 42.0243 37.8174 42.0243" stroke="#1A7F5A" stroke-width="1.73077" stroke-linecap="round" stroke-linejoin="round"></path>
    <path d="M41.4814 29.6523C42.4938 29.6523 43.3138 30.4724 43.3138 31.4848C43.3138 32.4972 42.4938 33.3172 41.4814 33.3172" stroke="#1A7F5A" stroke-width="1.73077" stroke-linecap="round" stroke-linejoin="round"></path>
    <path d="M25.9066 20.9492C24.8942 20.9492 24.0742 21.7692 24.0742 22.7817C24.0742 23.7941 24.8942 24.6141 25.9066 24.6141" stroke="#1A7F5A" stroke-width="1.73077" stroke-linecap="round" stroke-linejoin="round"></path>
    <path d="M22.2416 33.3164C21.2292 33.3164 20.4092 34.1364 20.4092 35.1489C20.4092 36.1613 21.2292 36.9813 22.2416 36.9813" stroke="#1A7F5A" stroke-width="1.73077" stroke-linecap="round" stroke-linejoin="round"></path>
    <path d="M27.2806 36.5234C26.2682 36.5234 25.4482 37.3435 25.4482 38.3559C25.4482 39.3683 26.2682 40.1883 27.2806 40.1883" stroke="#1A7F5A" stroke-width="1.73077" stroke-linecap="round" stroke-linejoin="round"></path>
    <path d="M24.5316 43.3984C23.5192 43.3984 22.6992 44.2185 22.6992 45.2309C22.6992 46.2433 23.5192 47.0633 24.5316 47.0633" stroke="#1A7F5A" stroke-width="1.73077" stroke-linecap="round" stroke-linejoin="round"></path>
    <path d="M29.1127 47.5156C28.1003 47.5156 27.2803 48.3356 27.2803 49.3481C27.2803 50.3605 28.1003 51.1805 29.1127 51.1805" stroke="#1A7F5A" stroke-width="1.73077" stroke-linecap="round" stroke-linejoin="round"></path>
    <path d="M24.5316 27.3633C23.5192 27.3633 22.6992 28.1833 22.6992 29.1957C22.6992 30.2082 23.5192 31.0282 24.5316 31.0282" stroke="#1A7F5A" stroke-width="1.73077" stroke-linecap="round" stroke-linejoin="round"></path>
    <path d="M34.1527 41.1055C33.1403 41.1055 32.3203 41.9255 32.3203 42.9379C32.3203 43.9503 33.1403 44.7704 34.1527 44.7704" stroke="#1A7F5A" stroke-width="1.73077" stroke-linecap="round" stroke-linejoin="round"></path>
    <path d="M35.9857 31.9414C34.9733 31.9414 34.1533 32.7614 34.1533 33.7739C34.1533 34.7863 34.9733 35.6063 35.9857 35.6063" stroke="#1A7F5A" stroke-width="1.73077" stroke-linecap="round" stroke-linejoin="round"></path>
    <path d="M31.8617 29.6523C30.8493 29.6523 30.0293 30.4724 30.0293 31.4848C30.0293 32.4972 30.8493 33.3172 31.8617 33.3172" stroke="#1A7F5A" stroke-width="1.73077" stroke-linecap="round" stroke-linejoin="round"></path>
  </g>
  <defs>
    <clipPath id="clip0_4913_7343">
      <rect width="42.823" height="43.2" fill="white" transform="translate(15.2559 14.3984)"></rect>
    </clipPath>
  </defs>
</svg>





