<?xml version="1.0" encoding="UTF-8"?>
<svg xmlns="http://www.w3.org/2000/svg" width="73" height="72" viewBox="0 0 73 72" fill="none">
  
  <path d="M27.4771 32.2991L27.1807 32.0438C28.79 31.6699 31.9402 31.6471 31.9402 28.8617C31.9402 25.3787 30.4722 23.5278 26.506 22.9214C21.3636 22.1829 15.9248 28.1687 15.2866 33.8035C14.5526 40.2862 18.063 47.8084 22.9364 47.4665C25.7492 47.6807 28.4846 45.9438 28.7399 42.7571C28.4572 40.7056 28.088 40.0856 26.237 38.8C26.7613 38.2074 28.1974 36.516 28.3341 35.741C28.9633 34.5101 28.2521 32.9738 27.4725 32.3036L27.4771 32.2991Z" stroke="#1A7F5A" stroke-width="1.73077" stroke-linecap="round" stroke-linejoin="round"></path>
  <path d="M44.3307 35.7365C44.4675 36.507 45.9035 38.2029 46.4278 38.7956C44.5769 40.0812 44.2076 40.7057 43.9249 42.7527C44.1894 46.0715 46.9657 47.4802 49.3044 47.4802C49.3136 47.4802 49.268 47.4757 50.0521 47.4757C54.7569 47.4757 58.0985 40.145 57.3828 33.8036C56.7445 28.1688 51.3058 22.183 46.1588 22.9261C42.1971 23.5324 40.7246 25.3833 40.7246 28.8663C40.7246 31.6518 43.8794 31.6746 45.4841 32.0484L45.1878 32.3037C44.4082 32.9693 43.697 34.5102 44.3261 35.7411L44.3307 35.7365Z" fill="#24AE7C" stroke="#1A7F5A" stroke-width="1.73077" stroke-miterlimit="10"></path>
  <path d="M34.9681 30.9023C34.9681 30.9023 34.8861 32.0831 32.6887 33.1818C30.8651 34.0936 28.376 33.6377 28.376 33.6377" stroke="#1A7F5A" stroke-width="1.73077" stroke-linecap="round" stroke-linejoin="round"></path>
  <path d="M28.458 35.4609C28.458 35.4609 30.8651 35.4609 32.6887 38.1963C33.9515 40.0928 34.0563 42.7552 33.6004 44.5787C33.3132 45.7321 32.2328 49.1376 32.2328 49.1376" stroke="#1A7F5A" stroke-width="1.73077" stroke-linecap="round" stroke-linejoin="round"></path>
  <path d="M37.6553 30.9023C37.6553 30.9023 37.7373 32.0831 39.9347 33.1818C41.7583 34.0936 44.1152 33.7289 44.1152 33.7289" stroke="#1A7F5A" stroke-width="1.73077" stroke-linecap="round" stroke-linejoin="round"></path>
  <path d="M44.1148 35.4609C44.1148 35.4609 41.7578 35.4609 39.9343 38.1963C38.6715 40.0928 38.5666 42.7552 39.0225 44.5787C39.3097 45.7321 40.3902 49.1376 40.3902 49.1376" stroke="#1A7F5A" stroke-width="1.73077" stroke-linecap="round" stroke-linejoin="round"></path>
</svg>





