<?xml version="1.0" encoding="UTF-8"?>
<svg xmlns="http://www.w3.org/2000/svg" width="72" height="72" viewBox="0 0 72 72" fill="none">
    <path d="M17.6875 51.4228L20.8712 54.602C21.5367 53.9455 22.1438 53.3294 22.7778 52.6909L19.5941 49.5117C18.9601 50.1458 18.344 50.7528 17.6875 51.4228Z" stroke="#1A7F5A" stroke-width="1.73077" stroke-linecap="round" stroke-linejoin="round"></path>
  <path d="M16.1012 53.0098C15.031 54.08 14.7702 55.4021 15.7909 56.5038C16.8926 57.52 18.2146 57.2592 19.2849 56.189C19.8335 55.6404 20.3551 55.1098 20.8722 54.5972L17.6885 51.418C17.1759 51.9396 16.6453 52.4612 16.1012 53.0098Z" stroke="#1A7F5A" stroke-width="1.73077" stroke-linecap="round" stroke-linejoin="round"></path>
  <path d="M45.6539 18.3412L43.7471 20.25L52.0185 28.5128L53.9253 26.604L45.6539 18.3412Z" stroke="#1A7F5A" stroke-width="1.73077" stroke-linecap="round" stroke-linejoin="round"></path>
  <path d="M55.7758 24.7432C57.2103 23.3087 57.2103 20.9794 55.7758 19.5449L54.2424 18.0116L52.7091 16.4782C51.2746 15.0437 48.9453 15.0437 47.5109 16.4782L45.6582 18.3308L53.9322 26.5913L55.7848 24.7387L55.7758 24.7432Z" stroke="#1A7F5A" stroke-width="1.73077" stroke-linecap="round" stroke-linejoin="round"></path>
  <path d="M39.3038 29.7871L31.041 38.0586L34.2223 41.2366L42.4851 32.9651L39.3038 29.7871Z" fill="#24AE7C" stroke="#1A7F5A" stroke-width="1.73077" stroke-linecap="round" stroke-linejoin="round"></path>
  <path d="M45.9772 29.4635C45.1003 30.3404 43.6749 30.3449 42.798 29.4635C41.9211 28.5867 41.9166 27.1612 42.798 26.2843C43.6749 25.4075 45.1003 25.403 45.9772 26.2843C46.854 27.1612 46.8585 28.5867 45.9772 29.4635Z" fill="#24AE7C" stroke="#1A7F5A" stroke-width="1.73077" stroke-linecap="round" stroke-linejoin="round"></path>
  <path d="M26.646 37.4844C24.9507 39.8541 23.4038 44.7511 23.0936 45.3761C22.3876 46.7881 20.8002 48.1686 19.5996 49.5131L22.7833 52.6923C24.1233 51.4917 25.5038 49.8998 26.9158 49.1938C27.5408 48.8836 32.4333 47.3277 34.803 45.6324L26.6505 37.4889L26.646 37.4844Z" stroke="#1A7F5A" stroke-width="1.73077" stroke-linecap="round" stroke-linejoin="round"></path>
  <path d="M35.4912 45.05C39.6236 40.913 52.0166 28.5066 52.0166 28.5066L43.7426 20.2461C43.7426 20.2461 31.3497 32.6525 27.2172 36.7895C27.0238 36.9829 26.8305 37.2167 26.6416 37.4865L34.7942 45.6301C35.0595 45.4412 35.2978 45.2479 35.4912 45.0545V45.05Z" stroke="#1A7F5A" stroke-width="1.73077" stroke-linecap="round" stroke-linejoin="round"></path>
  <path d="M20.5623 41.792L20.5533 24.7449H15.1572L25.041 14.8477L34.9428 24.7359H29.5467V31.0314" stroke="#1A7F5A" stroke-width="1.73077" stroke-linecap="round" stroke-linejoin="round"></path>
</svg>





