<?xml version="1.0" encoding="UTF-8"?>
<svg xmlns="http://www.w3.org/2000/svg" width="73" height="72" viewBox="0 0 73 72" fill="none">
  
  <path d="M31.3096 26.9685V25.6471C31.3096 24.8335 31.9761 24.167 32.7897 24.167H33.0163C33.83 24.167 34.4965 24.8335 34.4965 25.6471" stroke="#1A7F5A" stroke-width="1.73" stroke-linecap="round" stroke-linejoin="round"></path>
  <path d="M42.4673 32.7652C41.5908 32.7652 40.873 32.0474 40.873 31.1709V26.2062C40.873 25.3297 41.5908 24.6119 42.4673 24.6119C43.3438 24.6119 44.0616 25.3297 44.0616 26.2062V31.1709C44.0616 32.0474 43.3438 32.7652 42.4673 32.7652Z" stroke="#1A7F5A" stroke-width="1.73" stroke-linecap="round" stroke-linejoin="round"></path>
  <path d="M40.0925 32.269C39.8544 32.4113 39.5765 32.4939 39.2788 32.4939C38.4023 32.4939 37.6846 31.7762 37.6846 30.8997V25.3164C37.6846 24.4399 38.4023 23.7222 39.2788 23.7222C39.8246 23.7222 40.3075 24 40.5953 24.4217" stroke="#1A7F5A" stroke-width="1.73" stroke-linecap="round" stroke-linejoin="round"></path>
  <path d="M34.498 28.4405V24.4681C34.498 23.6544 35.1645 22.9879 35.9782 22.9879H36.2048C36.5918 22.9879 36.944 23.1384 37.2086 23.3832" stroke="#1A7F5A" stroke-width="1.73" stroke-linecap="round" stroke-linejoin="round"></path>
  <path d="M43.2844 34.5465L43.038 35.7703C43.0082 35.9142 42.9768 36.0581 42.9404 36.2003C42.4046 38.3155 42.173 40.4969 42.2541 42.6783L42.4194 47.1386L42.4691 49.1992" stroke="#1A7F5A" stroke-width="1.73" stroke-linecap="round" stroke-linejoin="round"></path>
  <path d="M32.034 32.1648L35.2076 33.435C35.4259 33.5226 35.6674 33.5176 35.884 33.4201C35.9816 33.3754 36.0809 33.3225 36.1569 33.263C36.8267 32.7404 36.8763 31.6488 36.2363 31.0832C36.1619 31.0171 36.0792 30.9592 35.9882 30.9113L31.7016 28.6455C31.3708 28.4702 31.0004 28.4041 30.6349 28.4554C29.5566 28.6075 28.6586 29.4443 28.346 30.5921C27.9723 31.9664 28.174 33.4531 28.8984 34.6455L32.0522 39.8335V47.3104L32.0191 49.1974" stroke="#1A7F5A" stroke-width="1.73" stroke-linecap="round" stroke-linejoin="round"></path>
  <path d="M34.4978 35.6047C34.4978 35.6047 33.7057 32.5898 32.0254 32.1648" stroke="#1A7F5A" stroke-width="1.73" stroke-linecap="round" stroke-linejoin="round"></path>
  <path d="M45.5615 28.7217H47.0599" stroke="#1A7F5A" stroke-width="1.73" stroke-linecap="round" stroke-linejoin="round"></path>
  <path d="M25.6094 28.7217H29.6513" stroke="#1A7F5A" stroke-width="1.73" stroke-linecap="round" stroke-linejoin="round"></path>
  <path d="M28.1612 34.2817H25.6094" stroke="#1A7F5A" stroke-width="1.73" stroke-linecap="round" stroke-linejoin="round"></path>
  <path d="M47.0592 34.2817H38.1055" stroke="#1A7F5A" stroke-width="1.73" stroke-linecap="round" stroke-linejoin="round"></path>
  <path d="M50.6132 22.7993H48.3773C47.663 22.7993 47.084 23.3783 47.084 24.0926V37.9647C47.084 38.679 47.663 39.258 48.3773 39.258H50.6132C51.3275 39.258 51.9065 38.679 51.9065 37.9647V24.0926C51.9065 23.3783 51.3275 22.7993 50.6132 22.7993Z" fill="#24AE7C" stroke="#1A7F5A" stroke-width="1.73" stroke-linecap="round" stroke-linejoin="round"></path>
  <path d="M52.7363 25.1841H55.1384C56.0766 25.1841 56.8389 25.8059 56.8389 26.5749V35.4823C56.8389 36.2497 56.0786 36.8732 55.1384 36.8732H52.7363" fill="#24AE7C"></path>
  <path d="M52.7363 25.1841H55.1384C56.0766 25.1841 56.8389 25.8059 56.8389 26.5749V35.4823C56.8389 36.2497 56.0786 36.8732 55.1384 36.8732H52.7363" stroke="#1A7F5A" stroke-width="1.73" stroke-linecap="round" stroke-linejoin="round"></path>
  <path d="M25.5852 33.3357V24.0331C25.5852 23.3517 25.0328 22.7993 24.3514 22.7993H21.9964C21.3151 22.7993 20.7627 23.3517 20.7627 24.0331V38.0259C20.7627 38.7073 21.3151 39.2596 21.9964 39.2596H24.3514C25.0328 39.2596 25.5852 38.7073 25.5852 38.0259V33.3357Z" fill="#24AE7C" stroke="#1A7F5A" stroke-width="1.73" stroke-linecap="round" stroke-linejoin="round"></path>
  <path d="M19.966 25.1841H17.5438C16.5978 25.1841 15.8291 25.8059 15.8291 26.5749V35.4823C15.8291 36.2497 16.5957 36.8732 17.5438 36.8732H19.966" fill="#24AE7C"></path>
  <path d="M19.966 25.1841H17.5438C16.5978 25.1841 15.8291 25.8059 15.8291 26.5749V35.4823C15.8291 36.2497 16.5957 36.8732 17.5438 36.8732H19.966" stroke="#1A7F5A" stroke-width="1.73" stroke-linecap="round" stroke-linejoin="round"></path>
</svg>





