<?xml version="1.0" encoding="UTF-8"?>
<svg xmlns="http://www.w3.org/2000/svg" width="73" height="72" viewBox="0 0 73 72" fill="none">
  
  <path d="M56.9564 42.0069C57.7705 42.9595 57.555 44.4012 56.543 45.1302C56.0586 45.4761 55.5601 45.8138 54.5854 45.8138C52.5824 45.8138 52.5824 44.3709 50.5724 44.3709C48.5624 44.3709 48.5694 45.8138 46.5664 45.8138C44.5633 45.8138 44.5633 44.3709 42.5615 44.3709C40.5596 44.3709 40.5585 45.8138 38.5554 45.8138C37.512 45.8138 37.0124 45.4225 36.4907 45.0545C35.4857 44.3255 35.2935 42.9211 36.061 41.9464C37.434 40.2054 39.8108 38.051 43.4803 37.2672C43.9228 38.5191 45.1188 39.417 46.5233 39.417C47.9277 39.417 49.0794 38.5529 49.5406 37.3359C53.0843 38.1732 55.5159 40.3125 56.9564 42.0069Z" fill="#24AE7C"></path>
  <path d="M26.0751 17.9287L23.5328 20.4709L26.0751 23.0049L23.3372 25.7416L20.8032 23.2006L18.2609 25.7416L15.5312 23.0049L18.0653 20.4709L15.5312 17.9287L18.2609 15.199L20.8032 17.733L23.3372 15.199L26.0751 17.9287Z" fill="#24AE7C"></path>
  <path d="M35.9744 56.4088C34.6584 56.7955 33.2668 57.0016 31.8263 57.0016C23.7152 57.0016 17.1309 50.4254 17.1309 42.3062C17.1309 34.187 23.7152 27.6119 31.8263 27.6119C35.9988 27.6119 39.7592 29.3459 42.4341 32.135" stroke="#1A7F5A" stroke-width="1.73" stroke-linecap="round" stroke-linejoin="round"></path>
  <path d="M34.2646 46.5531C33.5484 46.9665 32.7158 47.2029 31.8261 47.2029C29.1255 47.2029 26.9385 45.0078 26.9385 42.306C26.9385 39.6043 29.1255 37.4103 31.8261 37.4103C33.22 37.4103 34.4777 37.9937 35.3686 38.93" stroke="#1A7F5A" stroke-width="1.73" stroke-linecap="round" stroke-linejoin="round"></path>
  <path d="M27.3447 31.0205L29.2301 32.7603" stroke="#1A7F5A" stroke-width="1.73" stroke-linecap="round" stroke-linejoin="round"></path>
  <path d="M32.7178 33.2214L34.7045 31.598" stroke="#1A7F5A" stroke-width="1.73" stroke-linecap="round" stroke-linejoin="round"></path>
  <path d="M37.0723 34.2672L38.7993 36.1643" stroke="#1A7F5A" stroke-width="1.73" stroke-linecap="round" stroke-linejoin="round"></path>
  <path d="M22.6309 35.242L24.6176 33.6198" stroke="#1A7F5A" stroke-width="1.73" stroke-linecap="round" stroke-linejoin="round"></path>
  <path d="M20.5352 45.5201L22.4206 47.26" stroke="#1A7F5A" stroke-width="1.73" stroke-linecap="round" stroke-linejoin="round"></path>
  <path d="M33.7117 50.6466L32.1826 52.7067" stroke="#1A7F5A" stroke-width="1.73" stroke-linecap="round" stroke-linejoin="round"></path>
  <path d="M25.5986 52.9409L25.1631 50.4127" stroke="#1A7F5A" stroke-width="1.73" stroke-linecap="round" stroke-linejoin="round"></path>
  <path d="M23.4937 38.9323L21.3486 40.339" stroke="#1A7F5A" stroke-width="1.73" stroke-linecap="round" stroke-linejoin="round"></path>
  <path d="M56.3114 48.1498L54.2874 55.3164C54.0056 56.3132 53.0949 57.0015 52.0584 57.0015H40.9883C39.9518 57.0015 39.0423 56.3132 38.7605 55.3164L36.7354 48.1498" stroke="#1A7F5A" stroke-width="1.73" stroke-linecap="round" stroke-linejoin="round"></path>
  <path d="M49.5359 37.3348C49.5359 37.3348 49.5394 37.3348 49.5406 37.3348C53.0843 38.1721 55.5159 40.3114 56.9564 42.0058C57.7705 42.9584 57.555 44.4001 56.543 45.1291C56.0586 45.475 55.5601 45.8127 54.5854 45.8127C52.5824 45.8127 52.5824 44.3699 50.5724 44.3699C48.5624 44.3699 48.5694 45.8127 46.5664 45.8127C44.5633 45.8127 44.5633 44.3699 42.5615 44.3699C40.5596 44.3699 40.5585 45.8127 38.5554 45.8127C37.512 45.8127 37.0124 45.4214 36.4907 45.0534C35.4857 44.3244 35.2935 42.92 36.061 41.9453C37.434 40.2043 39.8108 38.0499 43.4803 37.2661C43.4838 37.265 43.4861 37.265 43.4896 37.2638" stroke="#1A7F5A" stroke-width="1.73" stroke-linecap="round" stroke-linejoin="round"></path>
  <path d="M46.5238 32.964C48.3056 32.964 49.7508 34.4092 49.7508 36.1909C49.7508 36.5939 49.6774 36.9805 49.5412 37.3357C49.08 38.5526 47.9027 39.4167 46.5238 39.4167C45.145 39.4167 43.9234 38.5189 43.4809 37.267C43.3621 36.9304 43.2969 36.5683 43.2969 36.1909C43.2969 34.4092 44.7421 32.964 46.5238 32.964Z" stroke="#1A7F5A" stroke-width="1.73" stroke-linecap="round" stroke-linejoin="round"></path>
  <path d="M46.5234 32.9641V32.9373C46.5234 30.3077 47.4912 27.7702 49.2427 25.8091" stroke="#1A7F5A" stroke-width="1.73" stroke-linecap="round" stroke-linejoin="round"></path>
  <path d="M18.0653 20.4708L15.5312 23.0049L18.2609 25.7416L20.8032 23.2005" stroke="#1A7F5A" stroke-width="1.73" stroke-linecap="round" stroke-linejoin="round"></path>
  <path d="M20.8037 17.7329L23.3378 15.1989L26.0756 17.9285L23.5334 20.4708" stroke="#1A7F5A" stroke-width="1.73" stroke-linecap="round" stroke-linejoin="round"></path>
  <path d="M23.5334 20.4708L26.0756 23.0049L23.3378 25.7416L20.8037 23.2005" stroke="#1A7F5A" stroke-width="1.73" stroke-linecap="round" stroke-linejoin="round"></path>
  <path d="M18.0653 20.4709L15.5312 17.9287L18.2609 15.199L20.8032 17.733" stroke="#1A7F5A" stroke-width="1.73" stroke-linecap="round" stroke-linejoin="round"></path>
</svg>





