<?xml version="1.0" encoding="UTF-8"?>
<svg xmlns="http://www.w3.org/2000/svg" width="73" height="72" viewBox="0 0 73 72" fill="none">
  
  <g clip-path="url(#clip0_4913_7683)">
    <path d="M23.706 48.8502C21.8213 50.7349 21.8213 53.7941 23.706 55.6787C25.5907 57.5634 28.6499 57.5634 30.5345 55.6787C32.4192 53.7941 31.3867 50.6967 31.3867 47.9926C31.3867 46.2827 33.9488 43.7206 33.9488 43.7206L39.0729 38.5965L44.197 33.4724C44.197 33.4724 46.7591 30.9103 48.469 30.9103C51.1676 30.9103 54.265 31.9428 56.1552 30.0581C58.0453 28.1734 58.0398 25.1143 56.1552 23.2296C54.2705 21.3449 51.2113 21.3449 49.3266 23.2296C51.2113 21.3449 51.2113 18.2857 49.3266 16.4011C47.442 14.5164 44.3828 14.5164 42.4981 16.4011C40.6134 18.2857 41.6459 21.3831 41.6459 24.0872C41.6459 25.7971 39.0838 28.3592 39.0838 28.3592L33.9597 33.4833L28.8356 38.6074C28.8356 38.6074 26.2735 41.1695 24.5637 41.1695C21.865 41.1695 18.7676 40.137 16.8775 42.0217C14.9873 43.9064 14.9928 46.9655 16.8775 48.8502C18.7621 50.7349 21.8213 50.7349 23.706 48.8502Z" fill="#24AE7C" stroke="#1A7F5A" stroke-width="1.73" stroke-linecap="round" stroke-linejoin="round"></path>
    <path d="M28.8622 52.7231L27.7041 53.8813" stroke="#1A7F5A" stroke-width="1.73" stroke-linecap="round" stroke-linejoin="round"></path>
    <path d="M45.6659 18.5371L44.5078 19.6952" stroke="#1A7F5A" stroke-width="1.73" stroke-linecap="round" stroke-linejoin="round"></path>
  </g>
  <defs>
    <clipPath id="clip0_4913_7683">
      <rect width="43.2" height="43.2" fill="white" transform="translate(14.916 14.4399)"></rect>
    </clipPath>
  </defs>
</svg>





