<?xml version="1.0" encoding="UTF-8"?>
<svg xmlns="http://www.w3.org/2000/svg" width="73" height="72" viewBox="0 0 73 72" fill="none">
  
  <g clip-path="url(#clip0_4489_3722)">
    <path d="M29.1296 50.4431C29.0227 50.413 28.8987 50.3775 28.759 50.3366C28.2127 50.1767 27.4255 49.9338 26.4693 49.6041C24.5549 48.9439 21.9726 47.9387 19.2938 46.5584C13.879 43.7683 8.31818 39.5725 6.77395 33.8093C5.48792 29.0097 8.1586 23.8924 12.9041 22.6209C15.9543 21.8036 19.3215 22.8883 21.533 24.9076C21.751 25.1066 22.0555 25.1807 22.3406 25.1042C22.6257 25.0276 22.8521 24.811 22.941 24.5295C23.8426 21.6773 26.2196 19.053 29.2703 18.2355C34.0158 16.9639 38.8873 20.0603 40.1733 24.8598C40.4043 25.7221 40.539 26.6029 40.5918 27.4912C40.916 32.9808 38.0416 38.7696 34.964 43.2788C33.438 45.5146 31.8892 47.3969 30.7216 48.7202C30.1382 49.3813 29.6512 49.9016 29.3114 50.2552C29.245 50.3243 29.1843 50.387 29.1296 50.4431Z" fill="#24AE7C" stroke="#1A7F5A" stroke-width="1.73" stroke-linecap="round" stroke-linejoin="round"></path>
    <path d="M15.0725 26.6342C12.6066 28.3266 11.3508 31.4488 12.1694 34.5039" stroke="#1A7F5A" stroke-width="1.73" stroke-linecap="round" stroke-linejoin="round"></path>
    <mask id="path-4-inside-1_4489_3722" fill="white">
      <path d="M14.3995 25.0839C14.1345 25.1549 13.8815 25.2394 13.6316 25.3356L14.3995 25.0839Z"></path>
    </mask>
    <path d="M14.8472 26.755C15.7701 26.5077 16.3178 25.559 16.0705 24.6361C15.8232 23.7132 14.8746 23.1656 13.9517 23.4128L14.8472 26.755ZM13.0101 23.7211C12.1184 24.0643 11.6739 25.0654 12.0171 25.9571C12.3603 26.8488 13.3614 27.2933 14.2531 26.9501L13.0101 23.7211ZM13.9517 23.4128C13.6203 23.5016 13.3091 23.606 13.0101 23.7211L14.2531 26.9501C14.4539 26.8728 14.6487 26.8082 14.8472 26.755L13.9517 23.4128Z" fill="#1A7F5A" mask="url(#path-4-inside-1_4489_3722)"></path>
  </g>
  <g clip-path="url(#clip1_4489_3722)">
    <path d="M43.2818 50.8196C43.2072 50.7373 43.1209 50.6415 43.0242 50.5327C42.646 50.1073 42.1076 49.4838 41.4719 48.6969C40.1994 47.1217 38.5438 44.8996 37.0054 42.3084C33.8956 37.0705 31.4079 30.5636 33.1565 24.8591C34.6127 20.1084 39.5914 17.1876 44.2886 18.6274C47.3077 19.5528 49.5865 22.2587 50.3898 25.1437C50.469 25.4281 50.6878 25.6525 50.97 25.7388C51.2523 25.8252 51.5592 25.7616 51.7839 25.5702C54.0614 23.6309 57.4685 22.6674 60.4881 23.593C65.1853 25.0328 67.672 30.2419 66.2158 34.9927C65.9542 35.8461 65.6011 36.664 65.1747 37.445C62.5372 42.2704 57.0294 45.6525 52.0283 47.842C49.5486 48.9276 47.2372 49.7015 45.5454 50.2037C44.7001 50.4547 44.0113 50.6373 43.5356 50.7568C43.4427 50.7801 43.358 50.801 43.2818 50.8196Z" fill="#24AE7C" stroke="#1A7F5A" stroke-width="1.73" stroke-linecap="round" stroke-linejoin="round"></path>
    <path d="M44.0464 23.8506C41.0583 23.9769 38.3374 25.9573 37.4105 28.9812" stroke="#1A7F5A" stroke-width="1.73" stroke-linecap="round" stroke-linejoin="round"></path>
    <mask id="path-8-inside-2_4489_3722" fill="white">
      <path d="M44.247 21.5082C43.9847 21.4278 43.7254 21.3652 43.4626 21.3142L44.247 21.5082Z"></path>
    </mask>
    <path d="M43.74 23.1622C44.6535 23.4422 45.621 22.9287 45.901 22.0152C46.181 21.1017 45.6675 20.1342 44.754 19.8541L43.74 23.1622ZM43.7923 19.6159C42.8544 19.4338 41.9464 20.0465 41.7643 20.9844C41.5822 21.9224 42.1949 22.8303 43.1329 23.0124L43.7923 19.6159ZM44.754 19.8541C44.426 19.7536 44.1068 19.6769 43.7923 19.6159L43.1329 23.0124C43.3441 23.0535 43.5435 23.102 43.74 23.1622L44.754 19.8541Z" fill="#1A7F5A" mask="url(#path-8-inside-2_4489_3722)"></path>
  </g>
  <defs>
    <clipPath id="clip0_4489_3722">
      <rect width="37.1144" height="33.7462" fill="white" transform="matrix(0.965925 -0.258822 0.258816 0.965927 2.83398 24.0061)"></rect>
    </clipPath>
    <clipPath id="clip1_4489_3722">
      <rect width="37.1144" height="33.7462" fill="white" transform="matrix(0.956092 0.293068 -0.293062 0.956094 35.0166 14.4587)"></rect>
    </clipPath>
  </defs>
</svg>





