<?xml version="1.0" encoding="UTF-8"?>
<svg xmlns="http://www.w3.org/2000/svg" width="73" height="72" viewBox="0 0 73 72" fill="none"><script xmlns=""/>
  
  <path d="M41.6751 57.1545C41.6751 57.1545 42.067 51.2223 42.1204 49.2449C42.1917 46.6484 42.5702 44.0876 43.2294 41.5758C43.3808 41.0057 43.4565 40.4045 43.4565 39.7854C43.4565 38.2267 42.9532 36.7837 42.1026 35.6079C41.7062 35.0601 41.635 34.3298 41.9512 33.733C43.1626 31.4438 43.8974 28.4154 43.8974 25.0885V25.0796C43.8974 24.6565 44.0533 24.2468 44.3428 23.935C44.9485 23.2893 50.2037 20.6572 52.5775 23.6678C53.4504 24.7768 52.9071 25.9926 52.3682 26.9412C53.0629 27.155 53.7532 27.5603 54.3411 28.1526C54.7687 28.5801 55.0982 29.0611 55.3298 29.5599L55.4456 29.6267C55.7396 29.0968 58.2514 24.3492 55.7039 21.1649C53.918 18.9336 51.2993 17.8247 48.1239 17.9538C47.83 17.9672 47.5449 17.9895 47.2688 18.0162C45.9104 18.1632 44.5343 17.7846 43.4431 16.9607C41.7285 15.6691 39.1766 14.8452 36.3263 14.8452C33.476 14.8452 30.9107 15.6691 29.1961 16.9696C28.1272 17.7801 26.7733 18.1364 25.4372 18.0028C25.1967 17.9806 24.9518 17.9627 24.6935 17.9494C21.5225 17.8202 18.8993 18.9292 17.1134 21.1604C14.6639 24.2245 16.8907 28.7271 17.3272 29.5421C17.5588 29.0522 17.8839 28.5757 18.307 28.1526C18.9394 27.5202 19.6831 27.1015 20.4269 26.9011C19.8969 25.957 19.3803 24.7589 20.2398 23.6678C22.6092 20.6572 27.8065 23.3293 28.3499 23.9618C28.6126 24.2646 28.7507 24.6521 28.7507 25.0529C28.7507 25.0662 28.7507 25.0752 28.7507 25.0885C28.7507 28.4154 29.49 31.4438 30.6969 33.733C31.0131 34.3342 30.9463 35.0601 30.5455 35.6079C29.6949 36.7837 29.1916 38.2267 29.1916 39.7854C29.1916 40.4045 29.2718 41.0057 29.4187 41.5758C30.0734 44.0876 30.452 46.6484 30.5277 49.2449C30.5856 51.2267 30.973 57.1545 30.973 57.1545" stroke="#1A7F5A" stroke-width="1.73" stroke-linecap="round" stroke-linejoin="round"/>
  <path d="M54.5924 30.0255L54.5462 29.9269C54.357 29.523 54.085 29.1242 53.7275 28.7627C53.2317 28.2674 52.668 27.9387 52.1137 27.7681L54.5924 30.0255ZM54.5924 30.0255C55.0505 31.089 54.8886 32.0464 54.3571 32.578L54.356 32.5791C53.6129 33.325 51.9218 33.3285 50.5434 31.95C49.1666 30.5733 49.1711 28.8806 49.9154 28.1363L49.9172 28.1345C50.387 27.6619 51.1839 27.4823 52.1134 27.768L54.5924 30.0255Z" fill="#24AE7C" stroke="#1A7F5A" stroke-width="1.73" stroke-miterlimit="10"/>
  <path d="M22.6673 28.0672L22.7422 28.1418C23.4881 28.885 23.4916 30.576 22.1132 31.9545C20.7364 33.3313 19.0438 33.3268 18.2994 32.5824C17.7517 32.0347 17.5957 31.0245 18.1182 29.9158C18.3089 29.5124 18.5774 29.1187 18.9274 28.7687C19.4557 28.2404 20.0671 27.9008 20.6603 27.7409C21.4965 27.5167 22.211 27.6674 22.6673 28.0672Z" fill="#24AE7C" stroke="#1A7F5A" stroke-width="1.73" stroke-miterlimit="10"/>
  <path d="M39.003 57.1545C39.003 57.1545 38.1123 50.4741 39.003 46.4659C39.4973 44.248 40.3391 41.5669 40.3391 41.5669L37.6669 42.903V34.4411C37.6669 34.4411 39.003 33.5504 39.4483 31.3236C39.8937 27.7607 40.1921 25.5295 41.6128 22.9775C40.1342 23.7391 38.3127 24.1978 36.3308 24.1978C34.349 24.1978 32.5274 23.7391 31.0488 22.9775C32.4695 25.5339 32.7679 27.7607 33.2133 31.3236C33.6586 33.5504 34.9947 34.4411 34.9947 34.4411V42.903L32.3226 41.5669C32.3226 41.5669 33.1643 44.248 33.6586 46.4659C34.5494 50.4741 33.6586 57.1545 33.6586 57.1545" stroke="#1A7F5A" stroke-width="1.73" stroke-linecap="round" stroke-linejoin="round"/>
  <path d="M33.7471 46.9155C33.7471 46.9155 34.9941 47.3564 36.3302 47.3564C37.6662 47.3564 38.9133 46.9155 38.9133 46.9155" stroke="#1A7F5A" stroke-width="1.73" stroke-linecap="round" stroke-linejoin="round"/>
  <path d="M34.1836 52.26C34.1836 52.26 35.2569 52.7009 36.4104 52.7009C37.5639 52.7009 38.6372 52.26 38.6372 52.26" stroke="#1A7F5A" stroke-width="1.73" stroke-linecap="round" stroke-linejoin="round"/>
</svg>




