<?xml version="1.0" encoding="UTF-8"?>
<svg xmlns="http://www.w3.org/2000/svg" width="73" height="72" viewBox="0 0 73 72" fill="none">
  
  <path d="M16.6504 13.9592V58.0409" stroke="#1A7F5A" stroke-width="1.73" stroke-linecap="round" stroke-linejoin="round"></path>
  <path d="M21.2422 13.9592V58.0409" stroke="#1A7F5A" stroke-width="1.73" stroke-linecap="round" stroke-linejoin="round"></path>
  <path d="M47.875 13.9592V31.5935" stroke="#1A7F5A" stroke-width="1.73" stroke-linecap="round" stroke-linejoin="round"></path>
  <path d="M52.4668 13.9592V34.6226" stroke="#1A7F5A" stroke-width="1.73" stroke-linecap="round" stroke-linejoin="round"></path>
  <path d="M47.875 51.1531L47.875 58.0407" stroke="#1A7F5A" stroke-width="1.73" stroke-linecap="round" stroke-linejoin="round"></path>
  <path d="M52.4668 50.3982L52.4668 58.0407" stroke="#1A7F5A" stroke-width="1.73" stroke-linecap="round" stroke-linejoin="round"></path>
  <path d="M29.9678 24.0613C31.2358 24.0613 32.2637 23.0334 32.2637 21.7654C32.2637 20.4974 31.2358 19.4695 29.9678 19.4695C28.6998 19.4695 27.6719 20.4974 27.6719 21.7654C27.6719 23.0334 28.6998 24.0613 29.9678 24.0613Z" stroke="#1A7F5A" stroke-width="1.4" stroke-linecap="round" stroke-linejoin="round"></path>
  <path d="M41.9053 28.6531C43.1733 28.6531 44.2012 27.6252 44.2012 26.3572C44.2012 25.0892 43.1733 24.0613 41.9053 24.0613C40.6373 24.0613 39.6094 25.0892 39.6094 26.3572C39.6094 27.6252 40.6373 28.6531 41.9053 28.6531Z" stroke="#1A7F5A" stroke-width="1.4" stroke-linecap="round" stroke-linejoin="round"></path>
  <path d="M26.7529 37.3775C28.021 37.3775 29.0489 36.3496 29.0489 35.0816C29.0489 33.8136 28.021 32.7856 26.7529 32.7856C25.4849 32.7856 24.457 33.8136 24.457 35.0816C24.457 36.3496 25.4849 37.3775 26.7529 37.3775Z" stroke="#1A7F5A" stroke-width="1.4" stroke-linecap="round" stroke-linejoin="round"></path>
  <path d="M40.0692 38.296C41.0836 38.296 41.9059 37.4737 41.9059 36.4593C41.9059 35.4449 41.0836 34.6226 40.0692 34.6226C39.0548 34.6226 38.2324 35.4449 38.2324 36.4593C38.2324 37.4737 39.0548 38.296 40.0692 38.296Z" stroke="#1A7F5A" stroke-width="1.4" stroke-linecap="round" stroke-linejoin="round"></path>
  <path d="M32.2625 44.7245C33.2769 44.7245 34.0993 43.9022 34.0993 42.8878C34.0993 41.8734 33.2769 41.051 32.2625 41.051C31.2481 41.051 30.4258 41.8734 30.4258 42.8878C30.4258 43.9022 31.2481 44.7245 32.2625 44.7245Z" stroke="#1A7F5A" stroke-width="1.4" stroke-linecap="round" stroke-linejoin="round"></path>
  <path d="M28.1297 52.9899C29.1441 52.9899 29.9664 52.1675 29.9664 51.1531C29.9664 50.1387 29.1441 49.3164 28.1297 49.3164C27.1153 49.3164 26.293 50.1387 26.293 51.1531C26.293 52.1675 27.1153 52.9899 28.1297 52.9899Z" stroke="#1A7F5A" stroke-width="1.4" stroke-linecap="round" stroke-linejoin="round"></path>
  <path d="M41.4459 56.6633C42.2067 56.6633 42.8235 56.0466 42.8235 55.2858C42.8235 54.525 42.2067 53.9082 41.4459 53.9082C40.6851 53.9082 40.0684 54.525 40.0684 55.2858C40.0684 56.0466 40.6851 56.6633 41.4459 56.6633Z" stroke="#1A7F5A" stroke-width="1.4" stroke-linecap="round" stroke-linejoin="round"></path>
  <path d="M37.774 19.4695C38.5348 19.4695 39.1516 18.8527 39.1516 18.0919C39.1516 17.3311 38.5348 16.7144 37.774 16.7144C37.0132 16.7144 36.3965 17.3311 36.3965 18.0919C36.3965 18.8527 37.0132 19.4695 37.774 19.4695Z" stroke="#1A7F5A" stroke-width="1.4" stroke-linecap="round" stroke-linejoin="round"></path>
  <path d="M26.2936 17.6325C27.0544 17.6325 27.6711 17.0158 27.6711 16.255C27.6711 15.4942 27.0544 14.8774 26.2936 14.8774C25.5328 14.8774 24.916 15.4942 24.916 16.255C24.916 17.0158 25.5328 17.6325 26.2936 17.6325Z" stroke="#1A7F5A" stroke-width="1.4" stroke-linecap="round" stroke-linejoin="round"></path>
  <path d="M38.233 48.8572C38.9938 48.8572 39.6106 48.2404 39.6106 47.4796C39.6106 46.7188 38.9938 46.1021 38.233 46.1021C37.4722 46.1021 36.8555 46.7188 36.8555 47.4796C36.8555 48.2404 37.4722 48.8572 38.233 48.8572Z" stroke="#1A7F5A" stroke-width="1.4" stroke-linecap="round" stroke-linejoin="round"></path>
  <path d="M33.1822 32.3266C33.943 32.3266 34.5598 31.7099 34.5598 30.9491C34.5598 30.1883 33.943 29.5715 33.1822 29.5715C32.4214 29.5715 31.8047 30.1883 31.8047 30.9491C31.8047 31.7099 32.4214 32.3266 33.1822 32.3266Z" stroke="#1A7F5A" stroke-width="1.4" stroke-linecap="round" stroke-linejoin="round"></path>
  <path d="M56.1403 44.7245C56.1403 48.274 53.2613 51.1531 49.7118 51.1531C46.1623 51.1531 43.2832 48.274 43.2832 44.7245C43.2832 39.2143 49.7118 28.6531 49.7118 28.6531C49.7118 28.6531 56.1403 39.2143 56.1403 44.7245Z" fill="#24AE7C" stroke="#1A7F5A" stroke-width="1.73" stroke-miterlimit="10"></path>
  <path d="M49.7127 48.8573C47.4306 48.8573 45.5801 47.0068 45.5801 44.7246" stroke="#1A7F5A" stroke-width="1.4" stroke-linecap="round" stroke-linejoin="round"></path>
</svg>





