<?xml version="1.0" encoding="UTF-8"?>
<svg xmlns="http://www.w3.org/2000/svg" width="73" height="72" viewBox="0 0 73 72" fill="none">
  
  <g clip-path="url(#clip0_4913_7549)">
    <path d="M17.6158 38.0983L16.4061 40.2116C14.6587 43.2639 15.7166 47.1548 18.7689 48.9022L29.6612 55.1377C32.7135 56.8851 36.6044 55.8272 38.3517 52.7749L39.5615 50.6617C41.3089 47.6094 40.251 43.7185 37.1987 41.9711L26.3064 35.7356C23.2541 33.9882 19.3632 35.0461 17.6158 38.0983Z" fill="#24AE7C" stroke="#1A7F5A" stroke-width="1.5" stroke-linecap="round" stroke-linejoin="round"></path>
    <path d="M25.9727 48.9489L31.7565 38.8516" stroke="#1A7F5A" stroke-width="1.5" stroke-linecap="round" stroke-linejoin="round"></path>
    <path d="M18.704 41.2852C17.5955 43.2239 18.2681 45.6961 20.2068 46.8046" stroke="#1A7F5A" stroke-width="1.5" stroke-linecap="round" stroke-linejoin="round"></path>
    <path d="M50.0365 31.7167L47.6077 31.8912C44.0997 32.1433 41.4602 35.1915 41.7123 38.6995L42.6118 51.2181C42.8639 54.7262 45.9121 57.3656 49.4201 57.1136L51.8489 56.939C55.3569 56.687 57.9964 53.6388 57.7443 50.1308L56.8447 37.6121C56.5927 34.1041 53.5445 31.4646 50.0365 31.7167Z" stroke="#1A7F5A" stroke-width="1.5" stroke-linecap="round" stroke-linejoin="round"></path>
    <path d="M45.6973 44.706L57.2974 43.8711" stroke="#1A7F5A" stroke-width="1.5" stroke-linecap="round" stroke-linejoin="round"></path>
    <path d="M47.9972 34.4023C45.7662 34.5647 44.0918 36.4988 44.2495 38.7298" stroke="#1A7F5A" stroke-width="1.5" stroke-linecap="round" stroke-linejoin="round"></path>
    <path d="M27.9849 34.8003C27.7391 33.7799 27.7437 32.6806 28.0498 31.5953L31.4403 19.5128C32.3865 16.1269 35.9023 14.1511 39.2928 15.1019L41.6351 15.7605C45.0209 16.7114 46.9968 20.2271 46.046 23.613L43.815 31.5582" stroke="#1A7F5A" stroke-width="1.5" stroke-linecap="round" stroke-linejoin="round"></path>
    <path d="M33.1514 26.5117L44.3479 29.6564" stroke="#1A7F5A" stroke-width="1.5" stroke-linecap="round" stroke-linejoin="round"></path>
    <path d="M38.8061 17.5928C36.654 16.9898 34.423 18.2421 33.8154 20.3942" stroke="#1A7F5A" stroke-width="1.5" stroke-linecap="round" stroke-linejoin="round"></path>
  </g>
  <defs>
    <clipPath id="clip0_4913_7549">
      <rect width="43.1304" height="43.2" fill="white" transform="translate(15.1006 14.3984)"></rect>
    </clipPath>
  </defs>
</svg>





