<?xml version="1.0" encoding="UTF-8"?>
<svg xmlns="http://www.w3.org/2000/svg" width="73" height="72" viewBox="0 0 73 72" fill="none">

  <path d="M39.6466 32.1231C39.0526 27.9335 37.5541 24.6169 37.5496 24.6124C36.1411 22.1598 32.8741 20.5938 27.6361 20.5938C19.4551 20.5938 15.1846 25.9219 15.1846 32.0556C15.1846 34.6117 15.1846 44.233 16.6066 47.8151C17.4436 49.9167 18.1996 51.3972 20.1661 51.3972C22.1326 51.3972 23.7571 49.2147 25.1476 47.8151C27.9961 44.9485 27.9961 44.233 34.7551 42.802C36.9646 42.3339 38.8636 41.6274 39.4801 39.9129C39.9256 38.6708 40.1551 35.7052 39.6466 32.1231Z" fill="#24AE7C" stroke="#1A7F5A" stroke-width="1.73077" stroke-miterlimit="10"></path>
  <path d="M49.0795 21.5793C47.5855 21.5793 43.675 21.7143 42.19 22.4568C41.0875 23.0104 40.426 23.2849 39.9355 23.9599C41.83 28.622 42.712 34.0582 41.839 39.1254C42.3205 39.3819 42.892 39.5214 44.4175 39.5214C46.5325 39.5214 50.4655 35.4218 54.808 29.1306C56.131 27.2135 57.778 28.388 57.778 25.4179C57.778 22.4478 52.1395 21.5703 49.084 21.5703L49.0795 21.5793Z" stroke="#1A7F5A" stroke-width="1.73077" stroke-linecap="round" stroke-linejoin="round"></path>
</svg>
