<?xml version="1.0" encoding="UTF-8"?>
<svg xmlns="http://www.w3.org/2000/svg" width="73" height="72" viewBox="0 0 73 72" fill="none">
  <path d="M31.6781 17.9771C30.8294 17.9567 30.1597 17.2511 30.1853 16.4076C30.2057 15.5589 30.9112 14.8892 31.7548 14.9148C32.6035 14.9352 33.2732 15.6407 33.2476 16.4843C33.2272 17.3329 32.5217 18.0027 31.6781 17.9771Z" fill="#24AE7C" stroke="#1A7F5A" stroke-width="1.73077" stroke-linecap="round" stroke-linejoin="round"></path>
  <path d="M20.9418 17.9771C20.0931 17.9567 19.4234 17.2511 19.449 16.4076C19.4694 15.5589 20.1749 14.8892 21.0185 14.9148C21.8671 14.9352 22.5369 15.6407 22.5113 16.4843C22.4908 17.3329 21.7853 18.0027 20.9418 17.9771Z" fill="#24AE7C" stroke="#1A7F5A" stroke-width="1.73077" stroke-linecap="round" stroke-linejoin="round"></path>
  <path d="M35.5532 27.1797C34.0194 29.4803 30.9264 31.014 26.3508 31.014C21.7752 31.014 18.6822 30.2471 17.1484 27.1797" stroke="#1A7F5A" stroke-width="1.73077" stroke-linecap="round" stroke-linejoin="round"></path>
  <path d="M33.2521 16.4453C33.2521 16.4453 37.0864 17.2122 37.0864 19.5128C37.0864 22.5802 36.3196 25.6477 35.5527 27.1814C34.1366 30.0086 30.7317 34.85 26.3504 34.85C21.969 34.85 18.5641 30.0086 17.148 27.1814C16.3811 25.6477 15.6143 22.5802 15.6143 19.5128C15.6143 17.2122 19.4486 16.4453 19.4486 16.4453" stroke="#1A7F5A" stroke-width="1.73077" stroke-linecap="round" stroke-linejoin="round"></path>
  <path d="M53.9579 31.0117C51.7391 31.0117 49.6942 32.3512 48.5899 34.0792C47.4856 32.3512 45.4406 31.0117 43.2218 31.0117C39.7761 31.0117 37.0869 34.4933 37.0869 37.9135C37.0869 45.9707 48.5899 51.717 48.5899 51.717C48.5899 51.717 60.0928 45.9707 60.0928 37.9135C60.0928 34.4933 57.4037 31.0117 53.9579 31.0117ZM50.1236 43.2815C48.8506 43.2815 47.823 42.2539 47.823 40.981C47.823 39.708 48.8506 38.6804 50.1236 38.6804C51.3966 38.6804 52.4242 39.708 52.4242 40.981C52.4242 42.2539 51.3966 43.2815 50.1236 43.2815Z" fill="#24AE7C" stroke="#1A7F5A" stroke-width="1.73077" stroke-linecap="round" stroke-linejoin="round"></path>
  <path d="M26.4626 34.8594C25.89 40.2581 26.8461 45.7591 25.9463 51.1118C25.7724 52.1343 24.888 53.9185 21.749 54.0207C18.7531 54.123 17.1478 49.4196 19.4484 47.119C21.749 44.8184 24.0496 45.5852 26.299 48.6783C28.436 51.6128 30.9513 57.0882 37.8531 57.0882C44.7549 57.0882 49.1004 43.1568 49.1004 43.1568" stroke="#1A7F5A" stroke-width="1.73077" stroke-linecap="round" stroke-linejoin="round"></path>
</svg>
